<svg width="14" height="14" viewBox="0 0 14 14" fill="none" xmlns="http://www.w3.org/2000/svg">
<path d="M3.92001 9.70699C4.06853 9.66367 4.22818 9.68113 4.36383 9.75552C4.49948 9.82991 4.60002 9.95514 4.64334 10.1037C4.68666 10.2522 4.66921 10.4118 4.59482 10.5475C4.52043 10.6831 4.3952 10.7837 4.24668 10.827C3.95501 10.9122 3.74501 11.002 3.61026 11.0837C3.74909 11.1671 3.96843 11.2604 4.27293 11.3473C4.94668 11.5398 5.91093 11.667 7.00001 11.667C8.08909 11.667 9.05334 11.5398 9.72709 11.3473C10.0322 11.2604 10.2509 11.1671 10.3898 11.0837C10.2556 11.002 10.0456 10.9122 9.75393 10.827C9.60774 10.7818 9.48518 10.6809 9.41267 10.5462C9.34015 10.4114 9.32348 10.2536 9.36626 10.1067C9.40903 9.95973 9.50783 9.83551 9.64134 9.76075C9.77485 9.68598 9.9324 9.66668 10.08 9.70699C10.4697 9.82074 10.8267 9.96658 11.1008 10.1538C11.3546 10.3282 11.6667 10.6322 11.6667 11.0837C11.6667 11.5404 11.347 11.8467 11.0892 12.0211C10.8103 12.2089 10.4458 12.3553 10.0473 12.4691C9.24351 12.6995 8.16668 12.8337 7.00001 12.8337C5.83334 12.8337 4.75651 12.6995 3.95268 12.4691C3.55426 12.3553 3.18968 12.2089 2.91084 12.0211C2.65301 11.8461 2.33334 11.5404 2.33334 11.0837C2.33334 10.6322 2.64543 10.3282 2.89918 10.1538C3.17334 9.96658 3.53034 9.82074 3.92001 9.70699ZM7.00001 1.16699C8.16033 1.16699 9.27313 1.62793 10.0936 2.4484C10.9141 3.26887 11.375 4.38167 11.375 5.54199C11.375 7.03999 10.5583 8.25799 9.71251 9.12366C9.37628 9.46428 9.01496 9.77919 8.63159 10.0657C8.28509 10.3259 7.49293 10.8136 7.49293 10.8136C7.34268 10.899 7.17283 10.9439 7.00001 10.9439C6.82719 10.9439 6.65734 10.899 6.50709 10.8136C6.11396 10.5856 5.73382 10.3359 5.36843 10.0657C4.9845 9.77989 4.62313 9.46494 4.28751 9.12366C3.44168 8.25799 2.62501 7.03999 2.62501 5.54199C2.62501 4.38167 3.08595 3.26887 3.90642 2.4484C4.72689 1.62793 5.83969 1.16699 7.00001 1.16699ZM7.00001 2.33366C6.14911 2.33366 5.33306 2.67168 4.73138 3.27336C4.1297 3.87504 3.79168 4.69109 3.79168 5.54199C3.79168 6.60133 4.37268 7.54166 5.12168 8.30699C5.68518 8.88333 6.30584 9.32199 6.73576 9.59149L7.00001 9.75132L7.26426 9.59149C7.69359 9.32199 8.31484 8.88333 8.87834 8.30758C9.62734 7.54166 10.2083 6.60191 10.2083 5.54199C10.2083 4.69109 9.87032 3.87504 9.26865 3.27336C8.66697 2.67168 7.85091 2.33366 7.00001 2.33366ZM7.00001 3.79199C7.22982 3.79199 7.45739 3.83726 7.66971 3.9252C7.88203 4.01315 8.07494 4.14205 8.23745 4.30456C8.39995 4.46706 8.52885 4.65998 8.6168 4.8723C8.70475 5.08462 8.75001 5.31218 8.75001 5.54199C8.75001 5.77181 8.70475 5.99937 8.6168 6.21169C8.52885 6.42401 8.39995 6.61693 8.23745 6.77943C8.07494 6.94193 7.88203 7.07084 7.66971 7.15878C7.45739 7.24673 7.22982 7.29199 7.00001 7.29199C6.53588 7.29199 6.09076 7.10762 5.76257 6.77943C5.43438 6.45124 5.25001 6.00612 5.25001 5.54199C5.25001 5.07786 5.43438 4.63274 5.76257 4.30456C6.09076 3.97637 6.53588 3.79199 7.00001 3.79199ZM7.00001 4.95866C6.8453 4.95866 6.69693 5.02012 6.58753 5.12951C6.47814 5.23891 6.41668 5.38728 6.41668 5.54199C6.41668 5.6967 6.47814 5.84507 6.58753 5.95447C6.69693 6.06387 6.8453 6.12533 7.00001 6.12533C7.15472 6.12533 7.30309 6.06387 7.41249 5.95447C7.52189 5.84507 7.58334 5.6967 7.58334 5.54199C7.58334 5.38728 7.52189 5.23891 7.41249 5.12951C7.30309 5.02012 7.15472 4.95866 7.00001 4.95866Z" fill="#CDC8C3"/>
</svg>
