<svg width="22" height="30" viewBox="0 0 22 30" fill="none" xmlns="http://www.w3.org/2000/svg">
<path d="M21 18.8136C21 23.6375 16.523 27.5479 11 27.5479C5.47698 27.5479 1 23.6375 1 18.8136C1 13.9898 5.32063 8.99687 10.8179 8.90933C15.8738 8.82864 21 13.9898 21 18.8136Z" fill="white"/>
<path d="M10.9978 29C14.1344 29 16.6771 28.0387 16.6771 26.8529C16.6771 25.6671 14.1344 24.7059 10.9978 24.7059C7.86114 24.7059 5.3184 25.6671 5.3184 26.8529C5.3184 28.0387 7.86114 29 10.9978 29Z" fill="#502F16"/>
<path d="M1.69476 22.0176C3.15785 25.256 6.77222 27.5479 11 27.5479C14.9504 27.5479 18.3658 25.5464 19.9904 22.6417C11.6543 25.73 4.91222 23.5486 1.69476 22.0176Z" fill="#784413"/>
<path d="M20.9147 17.7212C11.6516 21.5393 4.21865 18.7645 1.15833 17.1939C1.05437 17.7309 1 18.2734 1 18.8136C1 19.9448 1.24674 21.0256 1.69476 22.0176C4.91222 23.5486 11.6543 25.73 19.9904 22.6417C20.6368 21.4855 21 20.1869 21 18.8136C21 18.4509 20.9706 18.0855 20.9147 17.7212Z" fill="#F4B81A"/>
<path d="M13.9605 9.49967C12.9415 9.10672 11.8786 8.89239 10.8179 8.90933C9.63413 8.92829 8.50497 9.1749 7.46171 9.5977C8.53116 9.41535 9.74664 9.31247 11.0355 9.31247C12.0704 9.31247 13.0577 9.37904 13.9605 9.49967Z" fill="#784413"/>
<path d="M18.4003 12.6541C17.3773 13.6659 14.4666 14.3961 11.0344 14.3961C7.39277 14.3961 4.33801 13.5739 3.50269 12.4657C2.31499 13.841 1.48603 15.4927 1.15666 17.1948C4.21698 18.7653 11.6499 21.5401 20.913 17.722C20.638 15.9268 19.7122 14.1424 18.4003 12.6541Z" fill="#784413"/>
<path d="M11.0361 14.3956C14.4678 14.3956 17.3789 13.6654 18.4019 12.6536C17.1837 11.2714 15.6323 10.1444 13.9605 9.49967C13.0577 9.37904 12.0704 9.31247 11.0355 9.31247C9.74664 9.31247 8.53116 9.41535 7.46171 9.5977C5.92124 10.2226 4.56899 11.2323 3.50431 12.4648C4.33963 13.5734 7.39439 14.3956 11.0361 14.3956Z" fill="#5D340C"/>
<path d="M10.9985 12.3785C14.9543 12.3785 18.1612 11.2405 18.1612 9.83684C18.1612 8.43314 14.9543 7.29521 10.9985 7.29521C7.04265 7.29521 3.8358 8.43314 3.8358 9.83684C3.8358 11.2405 7.04265 12.3785 10.9985 12.3785Z" fill="#7B411A"/>
<path d="M10.9981 10.6436C13.9129 10.6436 16.2758 9.9533 16.2758 9.10172C16.2758 8.25014 13.9129 7.55979 10.9981 7.55979C8.08322 7.55979 5.72028 8.25014 5.72028 9.10172C5.72028 9.9533 8.08322 10.6436 10.9981 10.6436Z" fill="#5F330C"/>
<path d="M15.4888 9.05074C15.478 9.09713 15.4685 9.14958 15.4602 9.20848C15.4431 9.33233 15.3681 9.43924 15.261 9.50016C15.0495 9.61998 14.7689 9.85034 15.1229 10.0993C15.6388 10.4624 15.7578 10.0589 15.9562 10.6237C16.1546 11.1885 15.8372 11.7533 15.9562 12.4392C16.0058 12.7256 16.234 13.2057 16.7896 13.0443C17.3451 12.883 18.0197 12.3988 17.5038 11.1885C16.988 9.97823 17.6626 10.301 17.5038 9.89754C17.3618 9.53688 16.8074 8.65981 15.982 8.65134C15.7467 8.64892 15.5419 8.81755 15.4888 9.05074Z" fill="#FDD91D"/>
<path d="M11.8664 11.0672L14.0184 1.68014C14.045 1.56436 14.0989 1.45664 14.1771 1.36789C14.3589 1.16092 14.7406 0.871259 15.3585 1.06249C16.2712 1.34489 16.0331 2.23244 16.0331 2.23244L13.1759 11.5114L11.8664 11.0672Z" fill="#997132"/>
<path d="M12.1483 10.9161L14.2797 1.95427C14.3301 1.74126 14.4471 1.55326 14.6126 1.43989C14.7678 1.33379 14.9848 1.27327 15.2634 1.39955C15.8908 1.68357 15.6825 2.45695 15.6825 2.45695L13.1035 10.9428L12.1483 10.9161Z" fill="#A48346"/>
<path d="M7.78134 10.745C7.78134 10.745 7.18611 10.0995 8.05912 10.0995C8.93214 10.0995 10.5194 10.4222 11.1544 10.4222C11.7893 10.4222 12.6623 10.6239 13.0591 10.4222C13.4559 10.2205 14.2893 9.8574 14.5671 10.4222C14.8448 10.987 14.329 11.2291 13.8925 11.5922C13.4559 11.9553 13.9718 12.7218 13.1782 12.8025C12.3845 12.8831 12.3845 12.1166 11.948 12.1166C11.5115 12.1166 11.075 12.3587 11.3925 13.1656C11.6738 13.8808 11.8932 14.9455 10.694 15.3743C10.2897 15.5188 9.83531 15.4579 9.50277 15.1827C9.20992 14.9407 8.99166 14.5372 9.28928 13.8917C9.28928 13.8917 10.0432 12.3183 9.2496 12.1973C8.45595 12.0763 9.48769 12.9235 8.97182 13.0445C8.45595 13.1656 7.18611 13.0849 7.26547 12.1166C7.34484 11.1484 7.97976 11.0677 7.78134 10.745Z" fill="#FDD91D"/>
</svg>
