<svg width="60" height="69" viewBox="0 0 60 69" fill="none" xmlns="http://www.w3.org/2000/svg">
<path opacity="0.25" d="M30 66.9912C37.4558 66.9912 43.5 65.3123 43.5 63.2412C43.5 61.1701 37.4558 59.4912 30 59.4912C22.5442 59.4912 16.5 61.1701 16.5 63.2412C16.5 65.3123 22.5442 66.9912 30 66.9912Z" fill="#412D00"/>
<path opacity="0.5" d="M29.9988 65.4873C34.1409 65.4873 37.4988 64.4799 37.4988 63.2373C37.4988 61.9947 34.1409 60.9873 29.9988 60.9873C25.8566 60.9873 22.4988 61.9947 22.4988 63.2373C22.4988 64.4799 25.8566 65.4873 29.9988 65.4873Z" fill="#412D00"/>
<path opacity="0.75" d="M30.0012 63.9971C31.6581 63.9971 33.0012 63.6613 33.0012 63.2471C33.0012 62.8329 31.6581 62.4971 30.0012 62.4971C28.3444 62.4971 27.0012 62.8329 27.0012 63.2471C27.0012 63.6613 28.3444 63.9971 30.0012 63.9971Z" fill="#412D00"/>
<g filter="url(#filter0_dd_40000687_177849)">
<path d="M51.0015 25.0168C51.0034 21.2454 49.9897 17.543 48.0667 14.2986C46.1438 11.0541 43.3825 8.38747 40.0731 6.57866C36.7637 4.76985 33.0282 3.88567 29.2591 4.01899C25.49 4.15231 21.8264 5.29821 18.653 7.33632C15.4797 9.37444 12.9138 12.2295 11.2248 15.6017C9.53591 18.9739 8.78629 22.7387 9.05473 26.5006C9.32317 30.2625 10.5998 33.8827 12.7504 36.9808C19.6465 46.9153 26.2515 52.0059 30.0015 62.5059C33.7515 52.0059 40.5015 46.7559 47.6651 36.3636C49.8413 32.9791 50.9994 29.0406 51.0015 25.0168Z" fill="#FFC858"/>
<path d="M51.0015 25.0168C51.0034 21.2454 49.9897 17.543 48.0667 14.2986C46.1438 11.0541 43.3825 8.38747 40.0731 6.57866C36.7637 4.76985 33.0282 3.88567 29.2591 4.01899C25.49 4.15231 21.8264 5.29821 18.653 7.33632C15.4797 9.37444 12.9138 12.2295 11.2248 15.6017C9.53591 18.9739 8.78629 22.7387 9.05473 26.5006C9.32317 30.2625 10.5998 33.8827 12.7504 36.9808C19.6465 46.9153 26.2515 52.0059 30.0015 62.5059C33.7515 52.0059 40.5015 46.7559 47.6651 36.3636C49.8413 32.9791 50.9994 29.0406 51.0015 25.0168Z" stroke="white" stroke-width="1.8" stroke-linejoin="round"/>
</g>
<path d="M40.1022 27.0234L40.1097 27.0203L40.0782 26.8181C40.0662 26.726 40.0524 26.6339 40.0369 26.542L39.9559 26.0231L39.9337 26.0321C39.5885 24.5713 38.8298 23.1556 37.8146 21.9289L37.821 21.9226L37.5652 21.6372C37.4988 21.562 37.4314 21.4875 37.3631 21.4139L37.1637 21.1914L37.1573 21.1975C37.079 21.1172 36.9997 21.038 36.9192 20.9599C36.8939 20.7981 36.8481 20.629 36.7814 20.4531C37.1377 20.1289 37.3995 19.7168 37.3995 19.225C37.3995 18.6866 37.0858 18.2438 36.6777 17.9071C36.2665 17.5677 35.7009 17.284 35.0454 17.0552C34.6923 16.932 34.3054 16.822 33.8906 16.7271L35.3229 12.1518L35.3256 12.1431L35.328 12.1343L35.0353 12.0544C35.0353 12.0544 35.0353 12.0544 35.0353 12.0544C35.3281 12.1342 35.3281 12.134 35.3282 12.1338L35.3283 12.1332L35.3286 12.1321L35.3293 12.1297L35.3308 12.1238L35.3346 12.108C35.3375 12.0959 35.3409 12.0803 35.3445 12.0617C35.3517 12.0246 35.3598 11.9747 35.3653 11.9149C35.3763 11.7976 35.3789 11.6312 35.3391 11.4467C35.2528 11.0466 34.9742 10.6158 34.3462 10.4247L40.1022 27.0234ZM40.1022 27.0234C40.1269 27.2648 40.1397 27.5065 40.1397 27.7479C40.1397 27.7864 40.1394 27.8247 40.1388 27.863C40.1252 28.7907 39.9474 29.6799 39.6304 30.5116L39.7613 30.4639L39.2138 31.4267C38.6633 32.4603 37.8882 33.3817 36.9457 34.1476C36.6098 34.4212 36.2526 34.6749 35.8765 34.9068C35.9341 35.054 35.967 35.2122 35.967 35.3808C35.967 35.8547 35.707 36.2462 35.3695 36.543C35.031 36.8405 34.5695 37.086 34.0416 37.2824C32.9819 37.6764 31.5508 37.9102 29.9941 37.9102C28.4374 37.9102 27.0063 37.6764 25.9466 37.2824C25.4187 37.086 24.9572 36.8405 24.6188 36.543C24.2812 36.2462 24.0212 35.8547 24.0212 35.3808C24.0212 35.2114 24.0544 35.0525 24.1125 34.9047C23.7022 34.6515 23.3143 34.3723 22.9521 34.0697C21.8664 33.1645 21.0109 32.0498 20.4762 30.7945L20.0091 29.7774L20.1399 29.8386C19.9524 29.1704 19.8528 28.4705 19.8528 27.7479C19.8528 27.6518 19.8546 27.5557 19.858 27.4595C19.8696 27.1346 19.9006 26.8095 19.9501 26.4858L19.9414 26.4814L20.0133 26.1162C20.0236 26.0636 20.0345 26.0111 20.0458 25.9586L20.1399 25.4802L20.1597 25.4902C20.5278 24.133 21.2108 22.8334 22.1306 21.7044L22.1264 21.6988L22.3177 21.4809C22.3419 21.4529 22.3661 21.4249 22.3906 21.3971L22.7853 20.9475L22.7955 20.9609C22.9482 20.8049 23.1058 20.6532 23.2682 20.5062C22.8817 20.1743 22.5901 19.7441 22.5901 19.225C22.5901 18.6866 22.9039 18.2438 23.3119 17.9071C23.7231 17.5677 24.2887 17.284 24.9442 17.0552C26.2599 16.596 28.0456 16.321 29.9948 16.321C30.4285 16.321 30.8541 16.3346 31.2683 16.3608M40.1022 27.0234L31.2683 16.3608M32.6968 10.8573C32.9527 10.5706 33.5079 10.1694 34.3462 10.4246L32.6968 10.8573ZM32.6968 10.8573C32.5647 11.005 32.4754 11.182 32.4317 11.3691L32.4317 11.3693L31.2683 16.3608M32.6968 10.8573L31.2683 16.3608M34.9521 17.5429C34.5886 17.4124 34.1832 17.2963 33.7435 17.1971L34.9521 17.5429Z" fill="white" stroke="white" stroke-width="0.981818"/>
<path d="M39.818 27.8725C39.818 32.6087 35.4224 36.4481 29.9998 36.4481C24.5772 36.4481 20.1816 32.6087 20.1816 27.8725C20.1816 23.1364 24.4237 18.2343 29.821 18.1483C34.785 18.0691 39.818 23.1364 39.818 27.8725Z" fill="white"/>
<path d="M29.9976 37.8737C33.0772 37.8737 35.5737 36.9299 35.5737 35.7657C35.5737 34.6015 33.0772 33.6577 29.9976 33.6577C26.918 33.6577 24.4215 34.6015 24.4215 35.7657C24.4215 36.9299 26.918 37.8737 29.9976 37.8737Z" fill="#502F16"/>
<path d="M20.8638 31.0183C22.3003 34.1978 25.8489 36.4481 29.9998 36.4481C33.8784 36.4481 37.2317 34.4829 38.8268 31.631C30.6422 34.6632 24.0227 32.5215 20.8638 31.0183Z" fill="#784413"/>
<path d="M39.7342 26.8C30.6396 30.5487 23.3418 27.8243 20.3371 26.2823C20.235 26.8095 20.1816 27.3422 20.1816 27.8725C20.1816 28.9832 20.4239 30.0443 20.8638 31.0183C24.0227 32.5215 30.6422 34.6632 38.8268 31.631C39.4614 30.4958 39.818 29.2209 39.818 27.8725C39.818 27.5165 39.7892 27.1577 39.7342 26.8Z" fill="#F4B81A"/>
<path d="M32.9065 18.7279C31.906 18.3421 30.8624 18.1317 29.821 18.1483C28.6588 18.167 27.5502 18.4091 26.5259 18.8242C27.5759 18.6452 28.7692 18.5442 30.0347 18.5442C31.0508 18.5442 32.0202 18.6095 32.9065 18.7279Z" fill="#784413"/>
<path d="M37.2656 21.825C36.2612 22.8185 33.4034 23.5354 30.0336 23.5354C26.4582 23.5354 23.459 22.7281 22.6388 21.6401C21.4727 22.9904 20.6588 24.612 20.3355 26.2831C23.3401 27.8251 30.6379 30.5495 39.7326 26.8008C39.4626 25.0382 38.5536 23.2862 37.2656 21.825Z" fill="#784413"/>
<path d="M30.0352 23.5349C33.4046 23.5349 36.2628 22.8179 37.2672 21.8245C36.0711 20.4675 34.5479 19.3609 32.9065 18.7279C32.0202 18.6095 31.0508 18.5442 30.0347 18.5442C28.7692 18.5442 27.5759 18.6452 26.5259 18.8242C25.0134 19.4377 23.6857 20.4291 22.6404 21.6391C23.4605 22.7276 26.4598 23.5349 30.0352 23.5349Z" fill="#5D340C"/>
<path d="M29.9983 21.5544C33.8823 21.5544 37.0308 20.4372 37.0308 19.059C37.0308 17.6808 33.8823 16.5636 29.9983 16.5636C26.1144 16.5636 22.9659 17.6808 22.9659 19.059C22.9659 20.4372 26.1144 21.5544 29.9983 21.5544Z" fill="#7B411A"/>
<path d="M29.9979 19.8511C32.8598 19.8511 35.1797 19.1733 35.1797 18.3372C35.1797 17.5011 32.8598 16.8233 29.9979 16.8233C27.1361 16.8233 24.8161 17.5011 24.8161 18.3372C24.8161 19.1733 27.1361 19.8511 29.9979 19.8511Z" fill="#5F330C"/>
<path d="M34.407 18.2872C34.3965 18.3327 34.3871 18.3842 34.3789 18.442C34.3622 18.5636 34.2885 18.6686 34.1833 18.7284C33.9757 18.8461 33.7002 19.0722 34.0478 19.3166C34.5542 19.6731 34.6711 19.277 34.8659 19.8316C35.0607 20.3861 34.7491 20.9406 34.8659 21.614C34.9146 21.8952 35.1387 22.3666 35.6841 22.2081C36.2296 22.0497 36.8919 21.5744 36.3854 20.3861C35.8789 19.1978 36.5413 19.5147 36.3854 19.1186C36.2459 18.7645 35.7016 17.9034 34.8913 17.895C34.6602 17.8927 34.4592 18.0582 34.407 18.2872Z" fill="#FDD91D"/>
<path d="M30.8505 20.267L32.9633 11.0506C32.9894 10.9369 33.0424 10.8312 33.1192 10.744C33.2976 10.5408 33.6724 10.2564 34.279 10.4442C35.1751 10.7214 34.9414 11.5928 34.9414 11.5928L32.1362 20.7031L30.8505 20.267Z" fill="#997132"/>
<path d="M31.1273 20.1187L33.2199 11.3197C33.2694 11.1106 33.3843 10.926 33.5468 10.8147C33.6991 10.7105 33.9122 10.6511 34.1857 10.7751C34.8017 11.0539 34.5971 11.8133 34.5971 11.8133L32.0651 20.1448L31.1273 20.1187Z" fill="#A48346"/>
<path d="M26.8397 19.9506C26.8397 19.9506 26.2553 19.3168 27.1124 19.3168C27.9696 19.3168 29.528 19.6337 30.1514 19.6337C30.7748 19.6337 31.6319 19.8318 32.0215 19.6337C32.4111 19.4357 33.2293 19.0792 33.502 19.6337C33.7748 20.1882 33.2683 20.4259 32.8397 20.7824C32.4111 21.1389 32.9176 21.8915 32.1384 21.9707C31.3592 22.0499 31.3592 21.2973 30.9306 21.2973C30.502 21.2973 30.0735 21.535 30.3851 22.3272C30.6614 23.0295 30.8768 24.0748 29.6994 24.4958C29.3024 24.6376 28.8563 24.5778 28.5298 24.3077C28.2423 24.07 28.028 23.6739 28.3202 23.0401C28.3202 23.0401 29.0605 21.4954 28.2812 21.3765C27.502 21.2577 28.515 22.0895 28.0085 22.2083C27.502 22.3272 26.2553 22.248 26.3332 21.2973C26.4111 20.3467 27.0345 20.2675 26.8397 19.9506Z" fill="#FDD91D"/>
<defs>
<filter id="filter0_dd_40000687_177849" x="4.10156" y="0.105469" width="51.7998" height="68.3008" filterUnits="userSpaceOnUse" color-interpolation-filters="sRGB">
<feFlood flood-opacity="0" result="BackgroundImageFix"/>
<feColorMatrix in="SourceAlpha" type="matrix" values="0 0 0 0 0 0 0 0 0 0 0 0 0 0 0 0 0 0 127 0" result="hardAlpha"/>
<feMorphology radius="1" operator="dilate" in="SourceAlpha" result="effect1_dropShadow_40000687_177849"/>
<feOffset dy="1"/>
<feGaussianBlur stdDeviation="1.5"/>
<feComposite in2="hardAlpha" operator="out"/>
<feColorMatrix type="matrix" values="0 0 0 0 0.223529 0 0 0 0 0.223529 0 0 0 0 0.223529 0 0 0 0.13 0"/>
<feBlend mode="normal" in2="BackgroundImageFix" result="effect1_dropShadow_40000687_177849"/>
<feColorMatrix in="SourceAlpha" type="matrix" values="0 0 0 0 0 0 0 0 0 0 0 0 0 0 0 0 0 0 127 0" result="hardAlpha"/>
<feOffset dy="1"/>
<feGaussianBlur stdDeviation="1"/>
<feComposite in2="hardAlpha" operator="out"/>
<feColorMatrix type="matrix" values="0 0 0 0 0.223529 0 0 0 0 0.223529 0 0 0 0 0.223529 0 0 0 0.25 0"/>
<feBlend mode="normal" in2="effect1_dropShadow_40000687_177849" result="effect2_dropShadow_40000687_177849"/>
<feBlend mode="normal" in="SourceGraphic" in2="effect2_dropShadow_40000687_177849" result="shape"/>
</filter>
</defs>
</svg>
