<svg width="24" height="24" viewBox="0 0 24 24" fill="none" xmlns="http://www.w3.org/2000/svg">
<path fill-rule="evenodd" clip-rule="evenodd" d="M8.52566 3.10407C8.83356 3.00144 9.16644 3.00144 9.47434 3.10407L15 4.94596L20.2889 3.18299C21.1307 2.9024 22 3.52896 22 4.41628V17.6397C22 18.2853 21.5869 18.8585 20.9743 19.0627L15.4743 20.896C15.1664 20.9987 14.8336 20.9987 14.5257 20.896L9 19.0541L3.7111 20.8171C2.86931 21.0977 2 20.4712 2 19.5838V6.36043C2 5.71479 2.41315 5.14158 3.02566 4.93741L8.52566 3.10407ZM8 17.2793V5.38748L4 6.72081V18.6126L8 17.2793ZM10 5.38748V17.2793L14 18.6126V6.72081L10 5.38748ZM16 6.72081V18.6126L20 17.2793V5.38748L16 6.72081Z" fill="#0F0C0C"/>
</svg>
