<svg width="24" height="24" viewBox="0 0 24 24" fill="none" xmlns="http://www.w3.org/2000/svg">
<path d="M16 10.5C18.4854 10.5 20.5 12.5147 20.5 15C20.5 17.4854 18.4854 19.5 16 19.5C13.5147 19.5 11.5 17.4854 11.5 15C11.5 12.5147 13.5147 10.5 16 10.5ZM16 11.4C15.0452 11.4 14.1295 11.7793 13.4544 12.4544C12.7793 13.1295 12.4 14.0452 12.4 15C12.4 15.9548 12.7793 16.8705 13.4544 17.5456C14.1295 18.2207 15.0452 18.6 16 18.6C16.9548 18.6 17.8705 18.2207 18.5456 17.5456C19.2207 16.8705 19.6 15.9548 19.6 15C19.6 14.0452 19.2207 13.1295 18.5456 12.4544C17.8705 11.7793 16.9548 11.4 16 11.4ZM15.0455 13.4088L16 14.3637L16.9545 13.4088C16.9963 13.367 17.0459 13.3338 17.1005 13.3112C17.1551 13.2886 17.2137 13.2769 17.2728 13.2769C17.332 13.2769 17.3905 13.2886 17.4451 13.3112C17.4998 13.3338 17.5494 13.367 17.5912 13.4088C17.633 13.4506 17.6662 13.5002 17.6888 13.5549C17.7114 13.6095 17.7231 13.668 17.7231 13.7272C17.7231 13.7863 17.7114 13.8449 17.6888 13.8995C17.6662 13.9541 17.633 14.0037 17.5912 14.0455L16.6363 14.9996L17.5912 15.9545C17.6756 16.0389 17.7231 16.1534 17.7231 16.2728C17.7231 16.3922 17.6756 16.5068 17.5912 16.5912C17.5068 16.6756 17.3922 16.7231 17.2728 16.7231C17.1534 16.7231 17.0389 16.6756 16.9545 16.5912L16 15.6363L15.0455 16.5912C14.9611 16.6756 14.8466 16.7231 14.7272 16.7231C14.6078 16.7231 14.4932 16.6756 14.4088 16.5912C14.3244 16.5068 14.2769 16.3922 14.2769 16.2728C14.2769 16.1534 14.3244 16.0389 14.4088 15.9545L15.3637 15L14.4093 14.0455C14.3248 13.9612 14.2774 13.8467 14.2773 13.7273C14.2773 13.608 14.3246 13.4935 14.409 13.409C14.4934 13.3246 14.6079 13.2771 14.7272 13.2771C14.8466 13.277 14.9611 13.3244 15.0455 13.4088Z" fill="#635F59"/>
<path fill-rule="evenodd" clip-rule="evenodd" d="M3.2 2.5C2.26112 2.5 1.5 3.24619 1.5 4.16667V15.8333C1.5 16.7538 2.26112 17.5 3.2 17.5H11.5321C11.2335 16.9938 11.0228 16.4316 10.9204 15.8333H3.2V14.8955C3.26754 14.8587 3.33106 14.8122 3.38841 14.7559L8.19674 10.0419L11.2561 13.0413C11.4866 12.5111 11.8079 12.0278 12.2008 11.6104L8.94804 8.42142C8.53311 8.01463 7.86037 8.01463 7.44544 8.42142L3.2 12.5836V4.16667H16.8V10.0693C17.4102 10.1696 17.9837 10.3763 18.5 10.6691V4.16667C18.5 3.24619 17.7389 2.5 16.8 2.5H3.2ZM12.975 8.33333C13.6792 8.33333 14.25 7.77369 14.25 7.08333C14.25 6.39298 13.6792 5.83333 12.975 5.83333C12.2708 5.83333 11.7 6.39298 11.7 7.08333C11.7 7.77369 12.2708 8.33333 12.975 8.33333Z" fill="#96938E"/>
</svg>
