<svg width="24" height="24" viewBox="0 0 24 24" fill="none" xmlns="http://www.w3.org/2000/svg">
<path d="M16.9497 7.54026C17.3403 7.93078 17.3403 8.56395 16.9497 8.95447C16.5592 9.34499 15.9261 9.34499 15.5355 8.95447L13 6.41894V16C13 16.5523 12.5523 17 12 17C11.4477 17 11 16.5523 11 16V6.41894L8.46447 8.95447C8.07394 9.34499 7.44078 9.34499 7.05025 8.95447C6.65973 8.56395 6.65973 7.93078 7.05025 7.54026L11.1161 3.47439C11.6043 2.98624 12.3957 2.98624 12.8839 3.47439L16.9497 7.54026Z" fill="#0F0C0C"/>
<path d="M4 15C4.55228 15 5 15.4477 5 16V20H19V16C19 15.4477 19.4477 15 20 15C20.5523 15 21 15.4477 21 16V20C21 21.1046 20.1046 22 19 22H5C3.89543 22 3 21.1046 3 20V16C3 15.4477 3.44772 15 4 15Z" fill="#0F0C0C"/>
</svg>
