<svg width="24" height="24" viewBox="0 0 24 24" fill="none" xmlns="http://www.w3.org/2000/svg">
<path fill-rule="evenodd" clip-rule="evenodd" d="M4 4C2.89543 4 2 4.89543 2 6V8H4V7.41421L10.9394 14.3536C11.5252 14.9394 12.475 14.9394 13.0607 14.3536L20 7.41437V18H4V17H2V18C2 19.1046 2.89543 20 4 20H20C21.1046 20 22 19.1046 22 18V6C22 4.89543 21.1046 4 20 4H4ZM18.5859 6H5.41421L12.0001 12.5859L18.5859 6Z" fill="#0F0C0C"/>
<path d="M2 10C1.44772 10 1 10.4477 1 11C1 11.5523 1.44772 12 2 12H5C5.55228 12 6 11.5523 6 11C6 10.4477 5.55228 10 5 10H2Z" fill="#0F0C0C"/>
<path d="M0 14C0 13.4477 0.447715 13 1 13H6C6.55228 13 7 13.4477 7 14C7 14.5523 6.55228 15 6 15H1C0.447715 15 0 14.5523 0 14Z" fill="#0F0C0C"/>
</svg>
