<svg width="24" height="24" viewBox="0 0 24 24" fill="none" xmlns="http://www.w3.org/2000/svg">
<path d="M7 9C7 8.44772 7.44772 8 8 8H16C16.5523 8 17 8.44772 17 9C17 9.55228 16.5523 10 16 10H8C7.44772 10 7 9.55228 7 9Z" fill="#0F0C0C"/>
<path d="M8 12C7.44772 12 7 12.4477 7 13C7 13.5523 7.44772 14 8 14H11C11.5523 14 12 13.5523 12 13C12 12.4477 11.5523 12 11 12H8Z" fill="#0F0C0C"/>
<path fill-rule="evenodd" clip-rule="evenodd" d="M2 6C2 4.34315 3.34315 3 5 3H19C20.6569 3 22 4.34315 22 6V16C22 17.6569 20.6569 19 19 19H7.33333L4 21.5C3.17596 22.118 2 21.5301 2 20.5V6ZM5 5C4.44772 5 4 5.44772 4 6V19L6.13333 17.4C6.47953 17.1404 6.90059 17 7.33333 17H19C19.5523 17 20 16.5523 20 16V6C20 5.44772 19.5523 5 19 5H5Z" fill="#0F0C0C"/>
</svg>
