<svg width="24" height="24" viewBox="0 0 24 24" fill="none" xmlns="http://www.w3.org/2000/svg">
<path d="M15 3.00005C14.4477 3.00005 14 3.44777 14 4.00005C14 4.55234 14.4477 5.00005 15 5.00005C15.5253 5.00005 16.0454 5.10351 16.5307 5.30453C17.0161 5.50555 17.457 5.80019 17.8284 6.17162C18.1999 6.54306 18.4945 6.98401 18.6955 7.46932C18.8966 7.95462 19 8.47476 19 9.00005C19 9.55234 19.4477 10.0001 20 10.0001C20.5523 10.0001 21 9.55234 21 9.00005C21 8.21212 20.8448 7.4319 20.5433 6.70395C20.2418 5.976 19.7998 5.31456 19.2427 4.75741C18.6855 4.20026 18.0241 3.7583 17.2961 3.45677C16.5682 3.15525 15.7879 3.00005 15 3.00005Z" fill="#0F0C0C"/>
<path d="M15.1077 6.05321C14.5639 5.9573 14.0452 6.32047 13.9493 6.86437C13.8534 7.40826 14.2166 7.92692 14.7604 8.02282C15.0724 8.07783 15.3589 8.23018 15.579 8.45805C15.799 8.68591 15.9413 8.97759 15.9854 9.29127C16.0622 9.83818 16.5679 10.2192 17.1148 10.1424C17.6617 10.0655 18.0428 9.55984 17.9659 9.01293C17.863 8.28099 17.5311 7.60041 17.0177 7.06873C16.5042 6.53705 15.8356 6.18156 15.1077 6.05321Z" fill="#0F0C0C"/>
<path fill-rule="evenodd" clip-rule="evenodd" d="M8.17157 15.8285C12.0174 19.6743 15.5803 20.0954 16.6259 20.1338C17.8904 20.1804 19.1802 19.1483 19.7377 18.0906C18.848 17.0465 17.6893 16.2367 16.4195 15.3587C15.6712 16.107 14.7484 17.4973 13.5186 16.9999C12.8204 16.7175 11.0942 15.9226 9.58578 14.4143C8.0774 12.9059 7.28255 11.1797 7.00014 10.4815C6.50233 9.25061 7.89574 8.32612 8.64461 7.57726C7.76706 6.28656 6.9706 5.09818 5.92868 4.2532C4.85727 4.81369 3.81907 6.0937 3.86619 7.37412C3.90467 8.41978 4.32576 11.9827 8.17157 15.8285ZM16.5524 22.1325C15.1114 22.0795 11.0307 21.5161 6.75735 17.2427C2.48396 12.9693 1.92057 8.88862 1.86754 7.44767C1.78675 5.25221 3.46855 3.11902 5.41215 2.28605C5.86822 2.09059 6.4206 2.12636 6.85728 2.44489C8.46492 3.61756 9.57406 5.39531 10.5266 6.78731C10.9324 7.38037 10.8654 8.1849 10.3502 8.70012L8.99378 10.0565C9.30859 10.7518 9.95087 11.9509 11 13C12.0491 14.0492 13.2482 14.6914 13.9435 15.0063L15.2993 13.6505C15.8149 13.1348 16.6229 13.0669 17.2173 13.4787C18.6373 14.4625 20.305 15.556 21.521 17.1133C21.8626 17.5507 21.9133 18.1227 21.7096 18.5981C20.8728 20.5507 18.7552 22.2136 16.5524 22.1325Z" fill="#0F0C0C"/>
</svg>
