<svg width="24" height="24" viewBox="0 0 24 24" fill="none" xmlns="http://www.w3.org/2000/svg">
<path fill-rule="evenodd" clip-rule="evenodd" d="M8.17157 15.8285C12.0174 19.6743 15.5803 20.0954 16.6259 20.1338C17.8904 20.1804 19.1802 19.1483 19.7377 18.0906C18.848 17.0465 17.6893 16.2367 16.4195 15.3587C15.6712 16.107 14.7484 17.4973 13.5186 16.9999C12.8204 16.7175 11.0942 15.9226 9.58578 14.4143C8.0774 12.9059 7.28255 11.1797 7.00014 10.4815C6.50233 9.25061 7.89574 8.32612 8.64461 7.57726C7.76706 6.28656 6.9706 5.09818 5.92868 4.2532C4.85727 4.81369 3.81907 6.0937 3.86619 7.37412C3.90467 8.41978 4.32576 11.9827 8.17157 15.8285ZM16.5524 22.1325C15.1114 22.0795 11.0307 21.5161 6.75735 17.2427C2.48396 12.9693 1.92057 8.88862 1.86754 7.44767C1.78675 5.25221 3.46855 3.11902 5.41215 2.28605C5.86822 2.09059 6.4206 2.12636 6.85728 2.44489C8.46492 3.61756 9.57406 5.39531 10.5266 6.78731C10.9324 7.38037 10.8654 8.1849 10.3502 8.70012L8.99378 10.0565C9.30859 10.7518 9.95087 11.9509 11 13C12.0491 14.0492 13.2482 14.6914 13.9435 15.0063L15.2993 13.6505C15.8149 13.1348 16.6229 13.0669 17.2173 13.4787C18.6373 14.4625 20.305 15.556 21.521 17.1133C21.8626 17.5507 21.9133 18.1227 21.7096 18.5981C20.8728 20.5507 18.7552 22.2136 16.5524 22.1325Z" fill="#0F0C0C"/>
<path d="M18.7678 10.182C19.1583 10.5726 19.7915 10.5726 20.182 10.182C20.5725 9.79151 20.5725 9.15834 20.182 8.76782L18.4142 7.00005L20.182 5.23228C20.5725 4.84176 20.5725 4.20859 20.182 3.81807C19.7915 3.42755 19.1583 3.42755 18.7678 3.81807L17 5.58584L15.2322 3.81807C14.8417 3.42755 14.2086 3.42755 13.818 3.81807C13.4275 4.20859 13.4275 4.84176 13.818 5.23228L15.5858 7.00005L13.818 8.76782C13.4275 9.15834 13.4275 9.79151 13.818 10.182C14.2086 10.5726 14.8417 10.5726 15.2322 10.182L17 8.41426L18.7678 10.182Z" fill="#0F0C0C"/>
</svg>
