<svg width="24" height="24" viewBox="0 0 24 24" fill="none" xmlns="http://www.w3.org/2000/svg">
<path fill-rule="evenodd" clip-rule="evenodd" d="M8.17157 15.8285C12.0174 19.6743 15.5803 20.0954 16.6259 20.1338C17.8904 20.1804 19.1802 19.1483 19.7377 18.0906C18.848 17.0465 17.6893 16.2367 16.4195 15.3587C15.6712 16.107 14.7484 17.4973 13.5186 16.9999C12.8204 16.7175 11.0942 15.9226 9.58578 14.4143C8.0774 12.9059 7.28255 11.1797 7.00014 10.4815C6.50233 9.25061 7.89574 8.32612 8.64461 7.57726C7.76706 6.28656 6.9706 5.09818 5.92868 4.2532C4.85727 4.81369 3.81907 6.0937 3.86619 7.37412C3.90467 8.41978 4.32576 11.9827 8.17157 15.8285ZM16.5524 22.1325C15.1114 22.0795 11.0307 21.5161 6.75735 17.2427C2.48396 12.9693 1.92057 8.88862 1.86754 7.44767C1.78675 5.25221 3.46855 3.11902 5.41215 2.28605C5.86822 2.09059 6.4206 2.12636 6.85728 2.44489C8.46492 3.61756 9.57406 5.39531 10.5266 6.78731C10.9324 7.38037 10.8654 8.1849 10.3502 8.70012L8.99378 10.0565C9.30859 10.7518 9.95087 11.9509 11 13C12.0491 14.0492 13.2482 14.6914 13.9435 15.0063L15.2993 13.6505C15.8149 13.1348 16.6229 13.0669 17.2173 13.4787C18.6373 14.4625 20.305 15.556 21.521 17.1133C21.8626 17.5507 21.9133 18.1227 21.7096 18.5981C20.8728 20.5507 18.7552 22.2136 16.5524 22.1325Z" fill="#0F0C0C"/>
<path d="M16 10.0001C16 10.5523 16.4477 11.0001 17 11.0001C17.5523 11.0001 18 10.5523 18 10.0001V8.00005H20C20.5523 8.00005 21 7.55234 21 7.00005C21 6.44777 20.5523 6.00005 20 6.00005H18V4.00005C18 3.44777 17.5523 3.00005 17 3.00005C16.4477 3.00005 16 3.44777 16 4.00005V6.00005H14C13.4477 6.00005 13 6.44777 13 7.00005C13 7.55234 13.4477 8.00005 14 8.00005H16V10.0001Z" fill="#0F0C0C"/>
</svg>
