<svg width="24" height="24" viewBox="0 0 24 24" fill="none" xmlns="http://www.w3.org/2000/svg">
<path fill-rule="evenodd" clip-rule="evenodd" d="M6.75735 17.2427C11.0307 21.5161 15.1114 22.0795 16.5524 22.1325C18.7552 22.2136 20.8728 20.5507 21.7096 18.5981C21.9133 18.1227 21.8626 17.5507 21.521 17.1133C20.305 15.556 18.6373 14.4625 17.2173 13.4787C16.6229 13.0669 15.8149 13.1348 15.2993 13.6505L13.9435 15.0063C13.2482 14.6914 12.0491 14.0492 11 13C9.95087 11.9509 9.30859 10.7518 8.99378 10.0565L10.3502 8.70012C10.8654 8.1849 10.9324 7.38037 10.5266 6.78731C9.57407 5.39531 8.46492 3.61756 6.85728 2.44489C6.4206 2.12636 5.86822 2.09059 5.41215 2.28605C3.46855 3.11902 1.78675 5.25221 1.86754 7.44767C1.92057 8.88862 2.48396 12.9693 6.75735 17.2427ZM16.6259 20.1338C15.5803 20.0954 12.0174 19.6743 8.17157 15.8285C4.32576 11.9827 3.90467 8.41978 3.86619 7.37412C3.81907 6.0937 4.85727 4.81369 5.92868 4.2532C6.9706 5.09818 7.76707 6.28656 8.64461 7.57726C7.89574 8.32612 6.50233 9.25061 7.00014 10.4815C7.28255 11.1797 8.0774 12.9059 9.58578 14.4143C11.0942 15.9226 12.8204 16.7175 13.5186 16.9999C14.7484 17.4973 15.6712 16.107 16.4195 15.3587C17.6893 16.2367 18.848 17.0465 19.7377 18.0906C19.1802 19.1483 17.8904 20.1804 16.6259 20.1338Z" fill="#0F0C0C"/>
<path d="M14 9.00009V5.0001C14 4.44781 14.4477 4.0001 15 4.0001C15.5523 4.00009 16 4.44781 16 5.00009V6.58591L19.293 3.29294C19.6835 2.90242 20.3167 2.90242 20.7072 3.29294C21.0977 3.68347 21.0977 4.31663 20.7072 4.70716L17.4143 8.0001H19C19.5523 8.00009 20 8.44781 20 9.0001C20 9.55238 19.5523 10.0001 19 10.0001H15C14.4477 10.0001 14 9.55238 14 9.00009Z" fill="#0F0C0C"/>
</svg>
