<svg width="24" height="24" viewBox="0 0 24 24" fill="none" xmlns="http://www.w3.org/2000/svg">
<path fill-rule="evenodd" clip-rule="evenodd" d="M6.75735 17.2427C11.0307 21.5161 15.1114 22.0795 16.5524 22.1325C18.7552 22.2136 20.8728 20.5507 21.7096 18.5981C21.9133 18.1227 21.8626 17.5507 21.521 17.1133C20.305 15.556 18.6373 14.4625 17.2173 13.4787C16.6229 13.0669 15.8149 13.1348 15.2993 13.6505L13.9435 15.0063C13.2482 14.6914 12.0491 14.0492 11 13C9.95087 11.9509 9.30859 10.7518 8.99378 10.0565L10.3502 8.70012C10.8654 8.1849 10.9324 7.38037 10.5266 6.78731C9.57407 5.39531 8.46492 3.61756 6.85728 2.44489C6.4206 2.12636 5.86822 2.09059 5.41215 2.28605C3.46855 3.11902 1.78675 5.25221 1.86754 7.44767C1.92057 8.88862 2.48396 12.9693 6.75735 17.2427ZM16.6259 20.1338C15.5803 20.0954 12.0174 19.6743 8.17157 15.8285C4.32576 11.9827 3.90467 8.41978 3.86619 7.37412C3.81907 6.0937 4.85727 4.81369 5.92868 4.2532C6.9706 5.09818 7.76707 6.28656 8.64461 7.57726C7.89574 8.32612 6.50233 9.25061 7.00014 10.4815C7.28255 11.1797 8.0774 12.9059 9.58578 14.4143C11.0942 15.9226 12.8204 16.7175 13.5186 16.9999C14.7484 17.4973 15.6712 16.107 16.4195 15.3587C17.6893 16.2367 18.848 17.0465 19.7377 18.0906C19.1802 19.1483 17.8904 20.1804 16.6259 20.1338Z" fill="#0F0C0C"/>
<path d="M21 4.00011V8.00011C21 8.5524 20.5523 9.00011 20 9.00011C19.4477 9.00011 19 8.5524 19 8.00011V6.4143L15.707 9.70726C15.3165 10.0978 14.6833 10.0978 14.2928 9.70726C13.9023 9.31674 13.9023 8.68358 14.2928 8.29305L17.5857 5.00011H16C15.4477 5.00011 15 4.5524 15 4.00011C15 3.44783 15.4477 3.00011 16 3.00011L20 3.00011C20.5523 3.00011 21 3.44783 21 4.00011Z" fill="#0F0C0C"/>
</svg>
