<svg width="20" height="20" viewBox="0 0 20 20" fill="none" xmlns="http://www.w3.org/2000/svg">
<g clip-path="url(#clip0_40000843_379992)">
<path fill-rule="evenodd" clip-rule="evenodd" d="M10.5891 12.113C10.4329 12.2692 10.221 12.357 9.99998 12.357C9.77901 12.357 9.56709 12.2692 9.41082 12.113L7.05332 9.75551C6.93676 9.63891 6.8574 9.49037 6.82529 9.32866C6.79318 9.16696 6.80975 8.99936 6.87291 8.84708C6.93607 8.69479 7.04298 8.56467 7.18012 8.47316C7.31726 8.38165 7.47845 8.33288 7.64332 8.33301H12.3566C12.5215 8.33288 12.6827 8.38165 12.8198 8.47316C12.957 8.56467 13.0639 8.69479 13.1271 8.84708C13.1902 8.99936 13.2068 9.16696 13.1747 9.32866C13.1426 9.49037 13.0632 9.63891 12.9466 9.75551L10.5891 12.113Z" fill="#FF2D31"/>
</g>
<defs>
<clipPath id="clip0_40000843_379992">
<rect width="20" height="20" fill="white"/>
</clipPath>
</defs>
</svg>
