<svg width="20" height="20" viewBox="0 0 20 20" fill="none" xmlns="http://www.w3.org/2000/svg">
<g clip-path="url(#clip0_40001407_125300)">
<path fill-rule="evenodd" clip-rule="evenodd" d="M10.5884 7.88699C10.4321 7.73077 10.2202 7.643 9.99925 7.643C9.77828 7.643 9.56636 7.73077 9.41008 7.88699L7.05258 10.2445C6.93602 10.3611 6.85667 10.5096 6.82456 10.6713C6.79244 10.833 6.80902 11.0006 6.87218 11.1529C6.93534 11.3052 7.04225 11.4353 7.17939 11.5268C7.31652 11.6183 7.47772 11.6671 7.64258 11.667H12.3559C12.5208 11.6671 12.682 11.6183 12.8191 11.5268C12.9562 11.4353 13.0632 11.3052 13.1263 11.1529C13.1895 11.0006 13.2061 10.833 13.1739 10.6713C13.1418 10.5096 13.0625 10.3611 12.9459 10.2445L10.5884 7.88699Z" fill="#FF2D31"/>
</g>
<defs>
<clipPath id="clip0_40001407_125300">
<rect width="20" height="20" fill="white" transform="matrix(1 0 0 -1 0 20)"/>
</clipPath>
</defs>
</svg>
