<svg width="20" height="20" viewBox="0 0 20 20" fill="none" xmlns="http://www.w3.org/2000/svg">
<g clip-path="url(#clip0_40001407_125283)">
<path fill-rule="evenodd" clip-rule="evenodd" d="M9.41008 12.1134C9.56636 12.2697 9.77828 12.3574 9.99925 12.3574C10.2202 12.3574 10.4321 12.2697 10.5884 12.1134L12.9459 9.75593C13.0625 9.63934 13.1418 9.49079 13.1739 9.32909C13.2061 9.16738 13.1895 8.99979 13.1263 8.8475C13.0632 8.69522 12.9562 8.56509 12.8191 8.47358C12.682 8.38208 12.5208 8.3333 12.3559 8.33343H7.64258C7.47772 8.3333 7.31652 8.38208 7.17939 8.47358C7.04225 8.56509 6.93534 8.69522 6.87218 8.8475C6.80902 8.99979 6.79244 9.16738 6.82456 9.32909C6.85667 9.49079 6.93602 9.63934 7.05258 9.75593L9.41008 12.1134Z" fill="#0066FF"/>
</g>
<defs>
<clipPath id="clip0_40001407_125283">
<rect width="20" height="20" fill="white" transform="matrix(1 0 0 -1 0 20)"/>
</clipPath>
</defs>
</svg>
