<svg width="20" height="20" viewBox="0 0 20 20" fill="none" xmlns="http://www.w3.org/2000/svg">
<g clip-path="url(#clip0_40000843_379993)">
<path fill-rule="evenodd" clip-rule="evenodd" d="M9.41082 7.88657C9.56709 7.73034 9.77901 7.64258 9.99998 7.64258C10.221 7.64258 10.4329 7.73034 10.5891 7.88657L12.9466 10.2441C13.0632 10.3607 13.1426 10.5092 13.1747 10.6709C13.2068 10.8326 13.1902 11.0002 13.1271 11.1525C13.0639 11.3048 12.957 11.4349 12.8198 11.5264C12.6827 11.6179 12.5215 11.6667 12.3566 11.6666H7.64332C7.47845 11.6667 7.31726 11.6179 7.18012 11.5264C7.04298 11.4349 6.93607 11.3048 6.87291 11.1525C6.80975 11.0002 6.79318 10.8326 6.82529 10.6709C6.8574 10.5092 6.93676 10.3607 7.05332 10.2441L9.41082 7.88657Z" fill="#0066FF"/>
</g>
<defs>
<clipPath id="clip0_40000843_379993">
<rect width="20" height="20" fill="white"/>
</clipPath>
</defs>
</svg>
