<svg width="13" height="20" viewBox="0 0 13 20" fill="none" xmlns="http://www.w3.org/2000/svg">
<g clip-path="url(#clip0_530_9902)">
<path d="M0.000940304 1.61086L1.05154 19.2253C1.07799 19.661 1.44457 20 1.88295 20H7.11326C7.55542 20 7.922 19.661 7.94467 19.2253L8.99905 1.61086C9.01794 1.27936 8.7534 1 8.41706 1H0.586705C0.250363 1 -0.0179553 1.27936 0.000940304 1.61086Z" fill="#4E8198"/>
<path d="M8 4H12.0929C12.5929 4 13 4.4275 13 4.9525V12.25C13 12.6625 12.6786 13 12.2857 13C11.8929 13 11.5714 12.6625 11.5714 12.25V6.45625C11.5714 5.9275 11.1643 5.5 10.6607 5.5H8V4Z" fill="#283745"/>
<path d="M7 0H3V1H7V0Z" fill="#283745"/>
<path d="M0 4H9L8.41936 14H0.580645L0 4Z" fill="#283745"/>
</g>
<defs>
<clipPath id="clip0_530_9902">
<rect width="13" height="20" fill="white"/>
</clipPath>
</defs>
</svg>
