<svg width="16" height="16" viewBox="0 0 16 16" fill="none" xmlns="http://www.w3.org/2000/svg">
<circle cx="8" cy="8" r="6" fill="white"/>
<path fill-rule="evenodd" clip-rule="evenodd" d="M1.3335 8.00016C1.3335 4.31826 4.31826 1.3335 8.00016 1.3335C11.6821 1.3335 14.6668 4.31826 14.6668 8.00016C14.6668 11.6821 11.6821 14.6668 8.00016 14.6668C4.31826 14.6668 1.3335 11.6821 1.3335 8.00016ZM5.64318 5.64312C5.90353 5.38277 6.32564 5.38277 6.58599 5.64312L8.00016 7.05729L9.41435 5.6431C9.6747 5.38275 10.0968 5.38275 10.3572 5.6431C10.6175 5.90345 10.6175 6.32556 10.3572 6.58591L8.94297 8.0001L10.3572 9.41435C10.6176 9.6747 10.6176 10.0968 10.3572 10.3572C10.0969 10.6175 9.67476 10.6175 9.41442 10.3572L8.00016 8.94291L6.58593 10.3571C6.32558 10.6175 5.90347 10.6175 5.64312 10.3571C5.38277 10.0968 5.38277 9.67469 5.64312 9.41434L7.05735 8.0001L5.64318 6.58593C5.38283 6.32558 5.38283 5.90347 5.64318 5.64312Z" fill="#BC8701"/>
</svg>
