<svg width="16" height="16" viewBox="0 0 16 16" fill="none" xmlns="http://www.w3.org/2000/svg">
<circle cx="8" cy="8" r="6" fill="white"/>
<path fill-rule="evenodd" clip-rule="evenodd" d="M1.33301 8.00016C1.33301 4.31826 4.31778 1.3335 7.99967 1.3335C11.6816 1.3335 14.6663 4.31826 14.6663 8.00016C14.6663 11.6821 11.6816 14.6668 7.99967 14.6668C4.31778 14.6668 1.33301 11.6821 1.33301 8.00016ZM5.64269 5.64312C5.90304 5.38277 6.32515 5.38277 6.5855 5.64312L7.99967 7.05729L9.41387 5.6431C9.67421 5.38275 10.0963 5.38275 10.3567 5.6431C10.617 5.90345 10.617 6.32556 10.3567 6.58591L8.94248 8.0001L10.3567 9.41435C10.6171 9.6747 10.6171 10.0968 10.3567 10.3572C10.0964 10.6175 9.67428 10.6175 9.41393 10.3572L7.99967 8.94291L6.58544 10.3571C6.32509 10.6175 5.90298 10.6175 5.64263 10.3571C5.38228 10.0968 5.38228 9.67469 5.64263 9.41434L7.05687 8.0001L5.64269 6.58593C5.38234 6.32558 5.38234 5.90347 5.64269 5.64312Z" fill="#CDC8C3"/>
</svg>
