<svg width="12" height="13" viewBox="0 0 12 13" fill="none" xmlns="http://www.w3.org/2000/svg">
<path d="M5.15462 1.60182C5.42071 0.782878 6.57929 0.78288 6.84538 1.60182L7.59654 3.91366C7.71554 4.2799 8.05684 4.52786 8.44193 4.52786H10.8727C11.7338 4.52786 12.0918 5.62974 11.3952 6.13588L9.42865 7.56467C9.1171 7.79102 8.98674 8.19224 9.10574 8.55848L9.8569 10.8703C10.123 11.6893 9.18567 12.3703 8.48904 11.8641L6.52248 10.4353C6.21093 10.209 5.78907 10.209 5.47752 10.4353L3.51096 11.8641C2.81433 12.3703 1.87701 11.6893 2.1431 10.8703L2.89426 8.55848C3.01326 8.19224 2.8829 7.79102 2.57135 7.56467L0.604789 6.13588C-0.091845 5.62974 0.266179 4.52786 1.12727 4.52786H3.55807C3.94316 4.52786 4.28446 4.2799 4.40346 3.91366L5.15462 1.60182Z" fill="#FFC502"/>
</svg>
