<svg width="16" height="16" viewBox="0 0 16 16" fill="none" xmlns="http://www.w3.org/2000/svg">
<g clip-path="url(#clip0_530_10029)">
<path d="M14.3999 6.69248C14.3999 6.69248 15.1058 1.23135 13.5999 0.183016C12.0941 -0.865315 9.31769 2.93535 9.31769 2.93535C8.52054 2.58714 8.00385 2.62927 8.00008 2.62974C7.99679 2.62974 7.4801 2.58714 6.68248 2.93535C6.68248 2.93535 3.90609 -0.865778 2.40025 0.183016C0.894412 1.23135 1.60027 6.69248 1.60027 6.69248C1.60027 6.69248 -0.564369 9.83793 0.141493 11.4544C0.847354 13.0709 3.29434 16.0853 8.00008 15.9983C12.7058 16.0858 15.1528 13.0709 15.8587 11.4544C16.5645 9.83793 14.3999 6.69248 14.3999 6.69248Z" fill="#BD924E"/>
<path d="M3.01322 6C3.01322 6 4.62902 4.06751 6 3.79144C6 3.79144 4.23731 1.6749 3.55182 2.04299C2.86633 2.41109 3.01322 6 3.01322 6Z" fill="white"/>
<path d="M3.01518 5C3.01518 5 2.92894 3 3.16756 3C3.40618 3 4 3.91546 4 3.91546C4 3.91546 3.75661 4.12852 3.3922 4.5583C3.27732 4.69393 3.15051 4.80939 3.01518 5Z" fill="#764D31"/>
<path d="M13.9868 6C13.9868 6 12.371 4.06751 11 3.79144C11 3.79144 12.7627 1.6749 13.4482 2.04299C14.1337 2.41109 13.9868 6 13.9868 6Z" fill="white"/>
<path d="M11.9848 5C11.9848 5 12.0711 3 11.8324 3C11.5938 3 11 3.91546 11 3.91546C11 3.91546 11.2434 4.12852 11.6078 4.5583C11.7227 4.69393 11.8495 4.80939 11.9848 5Z" fill="#764D31"/>
<path d="M6 6C6.55229 6 7 5.77614 7 5.5C7 5.22386 6.55229 5 6 5C5.44772 5 5 5.22386 5 5.5C5 5.77614 5.44772 6 6 6Z" fill="white"/>
<path d="M5 9C5.55228 9 6 8.55228 6 8C6 7.44772 5.55228 7 5 7C4.44772 7 4 7.44772 4 8C4 8.55228 4.44772 9 5 9Z" fill="#4A2922"/>
<path d="M11 6C11.5523 6 12 5.77614 12 5.5C12 5.22386 11.5523 5 11 5C10.4477 5 10 5.22386 10 5.5C10 5.77614 10.4477 6 11 6Z" fill="white"/>
<path d="M11 9C11.5523 9 12 8.55228 12 8C12 7.44772 11.5523 7 11 7C10.4477 7 10 7.44772 10 8C10 8.55228 10.4477 9 11 9Z" fill="#4A2922"/>
<path d="M5.69214 14.6119C4.14139 14.0821 2.08678 13.136 1.24443 11.6643C1.06676 11.3537 0.985669 10.9953 1.00207 10.636C1.03168 9.99488 1.22666 8.94893 2.15056 8.60353C3.51726 8.09285 5.65842 9.1142 5.65842 9.1142C5.65842 9.1142 6.70623 8 7.93626 8C9.16629 8 10.2597 9.16063 10.2597 9.16063C10.2597 9.16063 12.0819 8.04643 13.2664 8.32498C14.4509 8.60353 15.0431 9.6713 14.9976 10.9712C14.9661 11.8658 12.9931 13.5297 10.7262 14.4656C9.12165 15.1281 7.33309 15.1722 5.69168 14.6114L5.69214 14.6119Z" fill="white"/>
<path d="M7.5 10C8.32843 10 9 9.77614 9 9.5C9 9.22386 8.32843 9 7.5 9C6.67157 9 6 9.22386 6 9.5C6 9.77614 6.67157 10 7.5 10Z" fill="#4A2922"/>
<path d="M4 11.253C4 11.253 6.18182 12.59 8 11.6866V11" stroke="#4A2922" stroke-width="0.323232" stroke-linecap="round" stroke-linejoin="round"/>
<path d="M12 11.253C12 11.253 9.81818 12.59 8 11.6866V11" stroke="#4A2922" stroke-width="0.323232" stroke-linecap="round" stroke-linejoin="round"/>
</g>
<defs>
<clipPath id="clip0_530_10029">
<rect width="16" height="16" fill="white"/>
</clipPath>
</defs>
</svg>
