<svg width="18" height="18" viewBox="0 0 18 18" fill="none" xmlns="http://www.w3.org/2000/svg">
<g clip-path="url(#clip0_40000018_39691)">
<path d="M2.28686 6.98277C2.25498 6.88756 2.24254 6.78692 2.25028 6.68681C2.25802 6.58671 2.28578 6.48917 2.33192 6.4C2.37805 6.31082 2.44163 6.23182 2.51887 6.16767C2.59611 6.10352 2.68544 6.05553 2.78157 6.02655C2.8777 5.99757 2.97868 5.98819 3.0785 5.99896C3.17833 6.00973 3.27497 6.04043 3.36271 6.08925C3.45045 6.13807 3.52749 6.20401 3.58927 6.28316C3.65105 6.36231 3.69631 6.45305 3.72236 6.55002C5.28686 11.7895 12.7089 11.7903 14.2749 6.55302C14.3029 6.45857 14.3493 6.37057 14.4114 6.29405C14.4735 6.21752 14.55 6.15398 14.6367 6.10704C14.7233 6.0601 14.8183 6.03068 14.9163 6.02047C15.0143 6.01026 15.1134 6.01945 15.2079 6.04752C15.3023 6.07559 15.3903 6.12199 15.4668 6.18407C15.5434 6.24615 15.6069 6.32269 15.6538 6.40933C15.7008 6.49596 15.7302 6.591 15.7404 6.689C15.7506 6.78701 15.7414 6.88607 15.7134 6.98052C15.4405 7.91891 14.9777 8.79121 14.3536 9.54327L15.3099 10.5003C15.4465 10.6417 15.5221 10.8312 15.5204 11.0278C15.5187 11.2245 15.4398 11.4126 15.3007 11.5516C15.1617 11.6907 14.9736 11.7696 14.7769 11.7713C14.5803 11.773 14.3908 11.6974 14.2494 11.5608L13.2661 10.5775C12.7354 10.9777 12.1493 11.2983 11.5261 11.5293L11.7939 12.5305C11.8224 12.6266 11.8315 12.7273 11.8204 12.8269C11.8094 12.9265 11.7785 13.0229 11.7296 13.1103C11.6807 13.1978 11.6148 13.2746 11.5357 13.3361C11.4567 13.3977 11.3661 13.4428 11.2693 13.4687C11.1725 13.4947 11.0715 13.501 10.9723 13.4873C10.873 13.4735 10.7775 13.4401 10.6914 13.3888C10.6053 13.3376 10.5304 13.2696 10.471 13.1889C10.4116 13.1082 10.3689 13.0165 10.3456 12.919L10.0726 11.9013C9.36236 12.0063 8.63636 12.0063 7.92611 11.9013L7.65311 12.919C7.62977 13.0165 7.58714 13.1082 7.52775 13.1889C7.46835 13.2696 7.39339 13.3376 7.30729 13.3888C7.22119 13.4401 7.12569 13.4735 7.02644 13.4873C6.92719 13.501 6.82619 13.4947 6.72942 13.4687C6.63264 13.4428 6.54205 13.3977 6.46299 13.3361C6.38393 13.2746 6.31801 13.1978 6.26911 13.1103C6.22021 13.0229 6.18934 12.9265 6.1783 12.8269C6.16726 12.7273 6.1763 12.6266 6.20486 12.5305L6.47261 11.5293C5.8494 11.298 5.26323 10.9772 4.73261 10.5768L3.75011 11.5608C3.60948 11.7016 3.41866 11.7808 3.21964 11.7809C3.02062 11.7811 2.82969 11.7022 2.68886 11.5615C2.54803 11.4209 2.46883 11.2301 2.46869 11.0311C2.46855 10.832 2.54748 10.6411 2.68811 10.5003L3.64436 9.54402C3.05636 8.84202 2.58686 7.98852 2.28536 6.98352L2.28686 6.98277Z" fill="#635F59"/>
</g>
<defs>
<clipPath id="clip0_40000018_39691">
<rect width="18" height="18" fill="white"/>
</clipPath>
</defs>
</svg>
