<svg width="18" height="18" viewBox="0 0 18 18" fill="none" xmlns="http://www.w3.org/2000/svg">
<circle cx="9" cy="9" r="6.75" fill="white"/>
<path fill-rule="evenodd" clip-rule="evenodd" d="M1.5 9C1.5 4.85786 4.85786 1.5 9 1.5C13.1421 1.5 16.5 4.85786 16.5 9C16.5 13.1421 13.1421 16.5 9 16.5C4.85786 16.5 1.5 13.1421 1.5 9ZM6.34839 6.34832C6.64129 6.05543 7.11616 6.05543 7.40905 6.34832L9 7.93927L10.591 6.34831C10.8839 6.05541 11.3587 6.05541 11.6516 6.34831C11.9445 6.6412 11.9445 7.11607 11.6516 7.40897L10.0607 8.99993L11.6517 10.591C11.9446 10.8839 11.9446 11.3587 11.6517 11.6516C11.3588 11.9445 10.8839 11.9445 10.591 11.6516L9 10.0606L7.40898 11.6516C7.11609 11.9445 6.64122 11.9445 6.34832 11.6516C6.05543 11.3587 6.05543 10.8838 6.34832 10.5909L7.93934 8.99993L6.34839 7.40898C6.0555 7.11609 6.0555 6.64122 6.34839 6.34832Z" fill="#CDC8C3"/>
</svg>
