<svg width="18" height="18" viewBox="0 0 18 18" fill="none" xmlns="http://www.w3.org/2000/svg">
<path d="M12.7647 2.38235C12.4055 2.38235 12.0613 2.44894 11.7443 2.57041C11.4041 1.37523 10.3043 0.5 9 0.5C7.69572 0.5 6.59587 1.37523 6.25571 2.57041C5.93868 2.44894 5.59454 2.38235 5.23529 2.38235C3.65966 2.38235 2.38235 3.65966 2.38235 5.23529C2.38235 5.59454 2.44894 5.93868 2.57041 6.25572C1.37523 6.59587 0.5 7.69572 0.5 9C0.5 10.3043 1.37523 11.4041 2.57041 11.7443C2.44894 12.0613 2.38235 12.4055 2.38235 12.7647C2.38235 14.3403 3.65966 15.6176 5.23529 15.6176C5.59454 15.6176 5.93869 15.5511 6.25572 15.4296C6.59587 16.6248 7.69572 17.5 9 17.5C10.3043 17.5 11.4041 16.6248 11.7443 15.4296C12.0613 15.5511 12.4055 15.6176 12.7647 15.6176C14.3403 15.6176 15.6176 14.3403 15.6176 12.7647C15.6176 12.4055 15.5511 12.0613 15.4296 11.7443C16.6248 11.4041 17.5 10.3043 17.5 9C17.5 7.69572 16.6248 6.59587 15.4296 6.25571C15.5511 5.93868 15.6176 5.59454 15.6176 5.23529C15.6176 3.65966 14.3403 2.38235 12.7647 2.38235Z" fill="#2FB350" stroke="#D6F4DE"/>
<path d="M10.227 6.11328H10.931L7.77363 11.5177H7.06252L10.227 6.11328ZM7.19763 6.11328C8.11496 6.11328 8.39229 6.8955 8.39229 7.68484C8.39229 8.45995 8.11496 9.27061 7.19763 9.27061C6.28741 9.27061 5.99585 8.45995 5.99585 7.68484C5.99585 6.8955 6.28741 6.11328 7.19763 6.11328ZM7.19763 8.71595C7.70963 8.71595 7.76652 8.06884 7.76652 7.69195C7.76652 7.31506 7.70963 6.66795 7.19763 6.66795C6.67852 6.66795 6.62163 7.31506 6.62163 7.69195C6.62163 8.06884 6.68563 8.71595 7.19763 8.71595ZM10.7959 8.34617C11.7132 8.34617 11.9905 9.1355 11.9905 9.91773C11.9905 10.7142 11.7203 11.5035 10.7959 11.5035C9.88563 11.5035 9.59407 10.7142 9.59407 9.91773C9.59407 9.1355 9.89274 8.34617 10.7959 8.34617ZM10.7959 10.9488C11.3078 10.9488 11.3647 10.3017 11.3647 9.92484C11.3647 9.54795 11.3078 8.90084 10.7959 8.90084C10.2767 8.90084 10.2199 9.54795 10.2199 9.92484C10.2199 10.3017 10.2839 10.9488 10.7959 10.9488Z" fill="white"/>
</svg>
