<svg width="18" height="19" viewBox="0 0 18 19" fill="none" xmlns="http://www.w3.org/2000/svg">
<circle cx="9" cy="9.5" r="6.75" fill="white"/>
<path fill-rule="evenodd" clip-rule="evenodd" d="M1.5 9.5C1.5 5.35786 4.85786 2 9 2C13.1421 2 16.5 5.35786 16.5 9.5C16.5 13.6421 13.1421 17 9 17C4.85786 17 1.5 13.6421 1.5 9.5ZM6.34839 6.84832C6.64129 6.55543 7.11616 6.55543 7.40905 6.84832L9 8.43927L10.591 6.84831C10.8839 6.55541 11.3587 6.55541 11.6516 6.84831C11.9445 7.1412 11.9445 7.61607 11.6516 7.90897L10.0607 9.49993L11.6517 11.091C11.9446 11.3839 11.9446 11.8587 11.6517 12.1516C11.3588 12.4445 10.8839 12.4445 10.591 12.1516L9 10.5606L7.40898 12.1516C7.11609 12.4445 6.64122 12.4445 6.34832 12.1516C6.05543 11.8587 6.05543 11.3838 6.34832 11.0909L7.93934 9.49993L6.34839 7.90898C6.0555 7.61609 6.0555 7.14122 6.34839 6.84832Z" fill="#CDC8C3"/>
</svg>
