<svg width="18" height="18" viewBox="0 0 18 18" fill="none" xmlns="http://www.w3.org/2000/svg">
<g clip-path="url(#clip0_40000018_39712)">
<path fill-rule="evenodd" clip-rule="evenodd" d="M3 9.00075C3.00225 8.98875 3.01275 8.92275 3.07125 8.793C3.13575 8.64975 3.24 8.46975 3.38925 8.262C3.68775 7.84725 4.134 7.368 4.698 6.9135C5.83275 5.997 7.359 5.25 9 5.25C10.641 5.25 12.1673 5.997 13.302 6.912C13.866 7.3665 14.3123 7.84575 14.6108 8.2605C14.7608 8.46825 14.8643 8.64825 14.9288 8.7915C14.9873 8.92125 14.9977 8.98725 15 8.99925V9C14.9977 9.012 14.9873 9.078 14.9288 9.20775C14.8402 9.39464 14.7337 9.57248 14.6108 9.73875C14.3123 10.1535 13.866 10.6327 13.302 11.0872C12.168 12.003 10.6417 12.75 9 12.75C7.359 12.75 5.83275 12.003 4.698 11.088C4.134 10.6335 3.68775 10.1543 3.38925 9.7395C3.26618 9.5733 3.15967 9.39545 3.07125 9.2085C3.03847 9.14268 3.01451 9.07283 3 9.00075ZM9 3.75C6.91275 3.75 5.064 4.6905 3.75675 5.74425C3.099 6.27375 2.55675 6.84975 2.172 7.3845C1.98981 7.63199 1.83278 7.89706 1.70325 8.17575C1.59225 8.4225 1.5 8.70825 1.5 9C1.5 9.291 1.59225 9.57825 1.7025 9.82425C1.81875 10.0807 1.98 10.3493 2.172 10.6155C2.55675 11.1503 3.099 11.7255 3.75675 12.2557C5.064 13.3095 6.91275 14.25 9 14.25C11.0872 14.25 12.936 13.3095 14.2432 12.2557C14.901 11.7262 15.4433 11.1503 15.828 10.6155C16.0208 10.3485 16.1813 10.0807 16.2968 9.82425C16.4078 9.57825 16.5 9.29175 16.5 9C16.5 8.709 16.4077 8.42175 16.2975 8.17575C16.1676 7.89712 16.0103 7.63207 15.828 7.3845C15.4433 6.84975 14.901 6.2745 14.2432 5.74425C12.936 4.6905 11.0872 3.75 9 3.75ZM8.25 9C8.25 8.80109 8.32902 8.61032 8.46967 8.46967C8.61032 8.32902 8.80109 8.25 9 8.25C9.19891 8.25 9.38968 8.32902 9.53033 8.46967C9.67098 8.61032 9.75 8.80109 9.75 9C9.75 9.19891 9.67098 9.38968 9.53033 9.53033C9.38968 9.67098 9.19891 9.75 9 9.75C8.80109 9.75 8.61032 9.67098 8.46967 9.53033C8.32902 9.38968 8.25 9.19891 8.25 9ZM9 6.75C8.40326 6.75 7.83097 6.98705 7.40901 7.40901C6.98705 7.83097 6.75 8.40326 6.75 9C6.75 9.59674 6.98705 10.169 7.40901 10.591C7.83097 11.0129 8.40326 11.25 9 11.25C9.59674 11.25 10.169 11.0129 10.591 10.591C11.0129 10.169 11.25 9.59674 11.25 9C11.25 8.40326 11.0129 7.83097 10.591 7.40901C10.169 6.98705 9.59674 6.75 9 6.75Z" fill="#635F59"/>
</g>
<defs>
<clipPath id="clip0_40000018_39712">
<rect width="18" height="18" fill="white"/>
</clipPath>
</defs>
</svg>
