<svg width="18" height="19" viewBox="0 0 18 19" fill="none" xmlns="http://www.w3.org/2000/svg">
<g clip-path="url(#clip0_564_19833)">
<path fill-rule="evenodd" clip-rule="evenodd" d="M3 9.50075C3.00225 9.48875 3.01275 9.42275 3.07125 9.293C3.13575 9.14975 3.24 8.96975 3.38925 8.762C3.68775 8.34725 4.134 7.868 4.698 7.4135C5.83275 6.497 7.359 5.75 9 5.75C10.641 5.75 12.1672 6.497 13.302 7.412C13.866 7.8665 14.3123 8.34575 14.6108 8.7605C14.7608 8.96825 14.8643 9.14825 14.9288 9.2915C14.9873 9.42125 14.9978 9.48725 15 9.49925V9.5C14.9978 9.512 14.9873 9.578 14.9288 9.70775C14.8402 9.89464 14.7337 10.0725 14.6108 10.2387C14.3123 10.6535 13.866 11.1328 13.302 11.5872C12.168 12.503 10.6418 13.25 9 13.25C7.359 13.25 5.83275 12.503 4.698 11.588C4.134 11.1335 3.68775 10.6543 3.38925 10.2395C3.26618 10.0733 3.15967 9.89545 3.07125 9.7085C3.03847 9.64268 3.01451 9.57283 3 9.50075ZM9 4.25C6.91275 4.25 5.064 5.1905 3.75675 6.24425C3.099 6.77375 2.55675 7.34975 2.172 7.8845C1.98981 8.13199 1.83278 8.39706 1.70325 8.67575C1.59225 8.9225 1.5 9.20825 1.5 9.5C1.5 9.791 1.59225 10.0782 1.7025 10.3243C1.81875 10.5807 1.98 10.8493 2.172 11.1155C2.55675 11.6503 3.099 12.2255 3.75675 12.7557C5.064 13.8095 6.91275 14.75 9 14.75C11.0872 14.75 12.936 13.8095 14.2432 12.7557C14.901 12.2262 15.4432 11.6503 15.828 11.1155C16.0208 10.8485 16.1812 10.5807 16.2968 10.3243C16.4078 10.0782 16.5 9.79175 16.5 9.5C16.5 9.209 16.4078 8.92175 16.2975 8.67575C16.1676 8.39712 16.0103 8.13207 15.828 7.8845C15.4432 7.34975 14.901 6.7745 14.2432 6.24425C12.936 5.1905 11.0872 4.25 9 4.25ZM8.25 9.5C8.25 9.30109 8.32902 9.11032 8.46967 8.96967C8.61032 8.82902 8.80109 8.75 9 8.75C9.19891 8.75 9.38968 8.82902 9.53033 8.96967C9.67098 9.11032 9.75 9.30109 9.75 9.5C9.75 9.69891 9.67098 9.88968 9.53033 10.0303C9.38968 10.171 9.19891 10.25 9 10.25C8.80109 10.25 8.61032 10.171 8.46967 10.0303C8.32902 9.88968 8.25 9.69891 8.25 9.5ZM9 7.25C8.40326 7.25 7.83097 7.48705 7.40901 7.90901C6.98705 8.33097 6.75 8.90326 6.75 9.5C6.75 10.0967 6.98705 10.669 7.40901 11.091C7.83097 11.5129 8.40326 11.75 9 11.75C9.59674 11.75 10.169 11.5129 10.591 11.091C11.0129 10.669 11.25 10.0967 11.25 9.5C11.25 8.90326 11.0129 8.33097 10.591 7.90901C10.169 7.48705 9.59674 7.25 9 7.25Z" fill="#635F59"/>
</g>
<defs>
<clipPath id="clip0_564_19833">
<rect width="18" height="18" fill="white" transform="translate(0 0.5)"/>
</clipPath>
</defs>
</svg>
