<svg width="18" height="19" viewBox="0 0 18 19" fill="none" xmlns="http://www.w3.org/2000/svg">
<g clip-path="url(#clip0_564_6570)">
<path d="M2.28686 7.48277C2.25498 7.38756 2.24254 7.28692 2.25028 7.18681C2.25802 7.08671 2.28578 6.98917 2.33192 6.9C2.37805 6.81082 2.44163 6.73182 2.51887 6.66767C2.59611 6.60352 2.68544 6.55553 2.78157 6.52655C2.8777 6.49757 2.97868 6.48819 3.0785 6.49896C3.17833 6.50973 3.27497 6.54043 3.36271 6.58925C3.45045 6.63807 3.52749 6.70401 3.58927 6.78316C3.65105 6.86231 3.69631 6.95305 3.72236 7.05002C5.28686 12.2895 12.7089 12.2903 14.2749 7.05302C14.3029 6.95857 14.3493 6.87057 14.4114 6.79405C14.4735 6.71752 14.55 6.65398 14.6367 6.60704C14.7233 6.5601 14.8183 6.53068 14.9163 6.52047C15.0143 6.51026 15.1134 6.51945 15.2079 6.54752C15.3023 6.57559 15.3903 6.62199 15.4668 6.68407C15.5434 6.74615 15.6069 6.82269 15.6538 6.90933C15.7008 6.99596 15.7302 7.091 15.7404 7.189C15.7506 7.28701 15.7414 7.38607 15.7134 7.48052C15.4405 8.41891 14.9777 9.29121 14.3536 10.0433L15.3099 11.0003C15.4465 11.1417 15.5221 11.3312 15.5204 11.5278C15.5187 11.7245 15.4398 11.9126 15.3007 12.0516C15.1617 12.1907 14.9736 12.2696 14.7769 12.2713C14.5803 12.273 14.3908 12.1974 14.2494 12.0608L13.2661 11.0775C12.7354 11.4777 12.1493 11.7983 11.5261 12.0293L11.7939 13.0305C11.8224 13.1266 11.8315 13.2273 11.8204 13.3269C11.8094 13.4265 11.7785 13.5229 11.7296 13.6103C11.6807 13.6978 11.6148 13.7746 11.5357 13.8361C11.4567 13.8977 11.3661 13.9428 11.2693 13.9687C11.1725 13.9947 11.0715 14.001 10.9723 13.9873C10.873 13.9735 10.7775 13.9401 10.6914 13.8888C10.6053 13.8376 10.5304 13.7696 10.471 13.6889C10.4116 13.6082 10.3689 13.5165 10.3456 13.419L10.0726 12.4013C9.36236 12.5063 8.63636 12.5063 7.92611 12.4013L7.65311 13.419C7.62977 13.5165 7.58714 13.6082 7.52775 13.6889C7.46835 13.7696 7.39339 13.8376 7.30729 13.8888C7.22119 13.9401 7.12569 13.9735 7.02644 13.9873C6.92719 14.001 6.82619 13.9947 6.72942 13.9687C6.63264 13.9428 6.54205 13.8977 6.46299 13.8361C6.38393 13.7746 6.31801 13.6978 6.26911 13.6103C6.22021 13.5229 6.18934 13.4265 6.1783 13.3269C6.16726 13.2273 6.1763 13.1266 6.20486 13.0305L6.47261 12.0293C5.8494 11.798 5.26323 11.4771 4.73261 11.0768L3.75011 12.0608C3.60948 12.2016 3.41866 12.2808 3.21964 12.2809C3.02062 12.2811 2.82969 12.2022 2.68886 12.0615C2.54803 11.9209 2.46883 11.7301 2.46869 11.5311C2.46855 11.332 2.54748 11.1411 2.68811 11.0003L3.64436 10.044C3.05636 9.34202 2.58686 8.48852 2.28536 7.48352L2.28686 7.48277Z" fill="#635F59"/>
</g>
<defs>
<clipPath id="clip0_564_6570">
<rect width="18" height="18" fill="white" transform="translate(0 0.5)"/>
</clipPath>
</defs>
</svg>
