<svg width="20" height="20" viewBox="0 0 20 20" fill="none" xmlns="http://www.w3.org/2000/svg">
<g clip-path="url(#clip0_564_19674)">
<path d="M2.06396 10.9178V15.269C2.06396 15.8125 2.49133 16.25 3.01477 16.25H3.896C4.42275 16.25 4.8468 15.8091 4.8468 15.269V14.2402H15.0141V15.269C15.0141 15.8125 15.4414 16.25 15.9649 16.25H16.9853C17.512 16.25 17.9361 15.8091 17.9361 15.269V10.9178C17.9361 10.6443 17.8864 10.3743 17.787 10.1213L15.7297 4.87114C15.4646 4.19435 14.8252 3.75 14.1196 3.75H5.88042C5.17146 3.75 4.53539 4.19435 4.27035 4.87114L2.21305 10.1213C2.11366 10.3743 2.06396 10.6443 2.06396 10.9178Z" fill="#E06A00"/>
<path d="M3.92181 8.08758L2.54775 7.73114C2.05566 7.60348 1.56872 7.86135 1.46015 8.30709L1.45943 8.31005C1.35086 8.75579 1.66176 9.22062 2.15385 9.34828L3.52791 9.70472C4.02 9.83237 4.50694 9.57451 4.61551 9.12876L4.61623 9.12581C4.7248 8.68006 4.4139 8.21523 3.92181 8.08758Z" fill="#E06A00"/>
<path d="M16.4849 9.75408L17.859 9.39764C18.3511 9.26999 18.662 8.80516 18.5534 8.35941L18.5527 8.35646C18.4441 7.91071 17.9572 7.65285 17.4651 7.7805L16.091 8.13694C15.5989 8.26459 15.288 8.72942 15.3966 9.17517L15.3973 9.17812C15.5059 9.62387 15.9928 9.88173 16.4849 9.75408Z" fill="#E06A00"/>
<path d="M4.56096 8.29576L5.81927 5.37568C5.91783 5.14686 6.13795 5 6.37778 5H13.7206C13.967 5 14.1904 5.15369 14.2857 5.39276L15.4487 8.31284C15.6097 8.71926 15.3239 9.16667 14.9001 9.16667H5.09977C4.66938 9.16667 4.38355 8.7056 4.55768 8.29918L4.56096 8.29576Z" fill="white"/>
<path d="M4.58486 10.4165H4.58181C4.12241 10.4165 3.75 10.7889 3.75 11.2483V11.2514C3.75 11.7108 4.12241 12.0832 4.58181 12.0832H4.58486C5.04425 12.0832 5.41667 11.7108 5.41667 11.2514V11.2483C5.41667 10.7889 5.04425 10.4165 4.58486 10.4165Z" fill="white"/>
<path d="M13.75 10.4165H6.25V12.0832H13.75V10.4165Z" fill="white"/>
<path d="M15.4184 10.4165H15.4153C14.9559 10.4165 14.5835 10.7889 14.5835 11.2483V11.2514C14.5835 11.7108 14.9559 12.0832 15.4153 12.0832H15.4184C15.8777 12.0832 16.2502 11.7108 16.2502 11.2514V11.2483C16.2502 10.7889 15.8777 10.4165 15.4184 10.4165Z" fill="white"/>
</g>
<defs>
<clipPath id="clip0_564_19674">
<rect width="17.5" height="12.5" fill="white" transform="translate(1.25 3.75)"/>
</clipPath>
</defs>
</svg>
