<svg width="20" height="20" viewBox="0 0 20 20" fill="none" xmlns="http://www.w3.org/2000/svg">
<path d="M15.3333 8.9963C15.3333 8.9963 15.9215 4.37539 14.6666 3.48835C13.4118 2.60131 11.0982 5.81722 11.0982 5.81722C10.4339 5.52259 10.0033 5.55824 10.0002 5.55863C9.99742 5.55863 9.56685 5.52259 8.90217 5.81722C8.90217 5.81722 6.58853 2.60092 5.33368 3.48835C4.07883 4.37539 4.66704 8.9963 4.66704 8.9963C4.66704 8.9963 2.86319 11.6578 3.45141 13.0256C4.03962 14.3934 6.07875 16.944 10.0002 16.8703C13.9216 16.9444 15.9607 14.3934 16.5489 13.0256C17.1371 11.6578 15.3333 8.9963 15.3333 8.9963Z" fill="#BD924E"/>
<path d="M5.5101 8.04103C5.5101 8.04103 6.80417 6.42039 7.90216 6.18887C7.90216 6.18887 6.49045 4.41389 5.94145 4.72258C5.39246 5.03127 5.5101 8.04103 5.5101 8.04103Z" fill="white"/>
<path d="M6.11903 7.37132C6.11903 7.37132 6.01982 5.68701 6.29431 5.68701C6.56881 5.68701 7.25192 6.45797 7.25192 6.45797C7.25192 6.45797 6.97193 6.6374 6.55274 6.99934C6.42058 7.11356 6.27471 7.2108 6.11903 7.37132Z" fill="#764D31"/>
<path d="M14.6367 8.04103C14.6367 8.04103 13.3426 6.42039 12.2446 6.18887C12.2446 6.18887 13.6563 4.41389 14.2053 4.72258C14.7543 5.03127 14.6367 8.04103 14.6367 8.04103Z" fill="white"/>
<path d="M14.0274 7.37132C14.0274 7.37132 14.1266 5.68701 13.8521 5.68701C13.5776 5.68701 12.8945 6.45797 12.8945 6.45797C12.8945 6.45797 13.1745 6.6374 13.5937 6.99934C13.7259 7.11356 13.8717 7.2108 14.0274 7.37132Z" fill="#764D31"/>
<path d="M7.90248 8.0022C8.27065 8.0022 8.56912 7.82944 8.56912 7.61634C8.56912 7.40323 8.27065 7.23047 7.90248 7.23047C7.5343 7.23047 7.23584 7.40323 7.23584 7.61634C7.23584 7.82944 7.5343 8.0022 7.90248 8.0022Z" fill="white"/>
<path d="M7.56936 10.3564C7.99168 10.3564 8.33404 10.0196 8.33404 9.604C8.33404 9.18844 7.99168 8.85156 7.56936 8.85156C7.14704 8.85156 6.80469 9.18844 6.80469 9.604C6.80469 10.0196 7.14704 10.3564 7.56936 10.3564Z" fill="#4A2922"/>
<path d="M12.0978 8.0022C12.466 8.0022 12.7644 7.82944 12.7644 7.61634C12.7644 7.40323 12.466 7.23047 12.0978 7.23047C11.7296 7.23047 11.4312 7.40323 11.4312 7.61634C11.4312 7.82944 11.7296 8.0022 12.0978 8.0022Z" fill="white"/>
<path d="M12.4312 10.3564C12.8535 10.3564 13.1959 10.0196 13.1959 9.604C13.1959 9.18844 12.8535 8.85156 12.4312 8.85156C12.0089 8.85156 11.6665 9.18844 11.6665 9.604C11.6665 10.0196 12.0089 10.3564 12.4312 10.3564Z" fill="#4A2922"/>
<path d="M8.0086 15.8515C6.67375 15.4112 4.9052 14.6248 4.18013 13.4016C4.02719 13.1435 3.95739 12.8456 3.97151 12.5469C3.997 12.014 4.16483 11.1447 4.9601 10.8576C6.13652 10.4331 7.97958 11.282 7.97958 11.282C7.97958 11.282 8.88151 10.356 9.94029 10.356C10.9991 10.356 11.9402 11.3206 11.9402 11.3206C11.9402 11.3206 13.5088 10.3945 14.5283 10.6261C15.5479 10.8576 16.0577 11.7451 16.0185 12.8255C15.9914 13.5691 14.2931 14.952 12.3418 15.7299C10.9606 16.2805 9.42109 16.3172 8.00821 15.8511L8.0086 15.8515Z" fill="white"/>
<path d="M9.96046 12.2084C10.7293 12.2084 11.3526 11.932 11.3526 11.591C11.3526 11.25 10.7293 10.9736 9.96046 10.9736C9.19162 10.9736 8.56836 11.25 8.56836 11.591C8.56836 11.932 9.19162 12.2084 9.96046 12.2084Z" fill="#4A2922"/>
<path d="M6.94189 12.4591C6.94189 12.4591 8.58889 13.8868 9.96138 12.9221V12.189" stroke="#4A2922" stroke-width="0.273501" stroke-linecap="round" stroke-linejoin="round"/>
<path d="M13.0195 12.4781C13.0195 12.4781 11.3725 13.9058 10 12.9412V12.208" stroke="#4A2922" stroke-width="0.273501" stroke-linecap="round" stroke-linejoin="round"/>
</svg>
