<svg width="20" height="20" viewBox="0 0 20 20" fill="none" xmlns="http://www.w3.org/2000/svg">
<g clip-path="url(#clip0_564_19633)">
<path d="M6.25022 3.55859L7.04656 17.3143C7.06661 17.6547 7.34447 17.9194 7.67675 17.9194H11.6412C11.9764 17.9194 12.2542 17.6547 12.2714 17.3143L13.0706 3.55859C13.0849 3.2997 12.8844 3.08154 12.6295 3.08154H6.69422C6.43928 3.08154 6.2359 3.2997 6.25022 3.55859Z" fill="#4E8198"/>
<path d="M12.2397 5.69971H13.984C14.385 5.69971 14.7116 6.03131 14.7116 6.43854V11.4824C14.7116 11.8024 14.4538 12.0642 14.1387 12.0642C13.8236 12.0642 13.5658 11.8024 13.5658 11.4824V7.60497C13.5658 7.19483 13.2392 7.0174 12.8353 7.0174H12.2397V5.69971Z" fill="#283745"/>
<path d="M11.094 2.5H8.22949V3.08176H11.094V2.5Z" fill="#283745"/>
<path d="M6.37598 5.69971H12.9472L12.5232 13.027H6.79992L6.37598 5.69971Z" fill="#283745"/>
</g>
<defs>
<clipPath id="clip0_564_19633">
<rect width="10" height="15.4167" fill="white" transform="translate(6.25 2.5)"/>
</clipPath>
</defs>
</svg>
