<svg width="23" height="16" viewBox="0 0 23 16" fill="none" xmlns="http://www.w3.org/2000/svg">
<g clip-path="url(#clip0_530_10060)">
<path d="M1 9.17473V14.7443C1 15.44 1.56544 16 2.25798 16H3.42392C4.12085 16 4.6819 15.4356 4.6819 14.7443V13.4274H18.134V14.7443C18.134 15.44 18.6994 16 19.392 16H20.742C21.4389 16 22 15.4356 22 14.7443V9.17473C22 8.82472 21.9343 8.47908 21.8028 8.15532L19.0808 1.43506C18.7301 0.568772 17.8842 0 16.9505 0H6.04947C5.11146 0 4.26988 0.568772 3.91922 1.43506L1.19724 8.15532C1.06575 8.47908 1 8.82472 1 9.17473Z" fill="#E06A00"/>
<path d="M2.78328 5.70317L1.09487 5.27661C0.490188 5.12384 -0.10843 5.43354 -0.242185 5.96835L-0.243072 5.97189C-0.376827 6.5067 0.00493048 7.06408 0.609608 7.21685L2.29803 7.64341C2.9027 7.79618 3.50132 7.48647 3.63508 6.95167L3.63596 6.94812C3.76972 6.41332 3.38796 5.85594 2.78328 5.70317Z" fill="#E06A00"/>
<path d="M20.2167 7.70317L21.9051 7.27661C22.5098 7.12384 22.8916 6.56646 22.7578 6.03165L22.7569 6.02811C22.6232 5.4933 22.0246 5.1836 21.4199 5.33637L19.7315 5.76293C19.1268 5.9157 18.745 6.47308 18.8788 7.00789L18.8797 7.01143C19.0134 7.54624 19.612 7.85594 20.2167 7.70317Z" fill="#E06A00"/>
<path d="M4.07522 4.95492L5.7929 1.45082C5.92745 1.17623 6.22793 1 6.55532 1H16.5789C16.9152 1 17.2202 1.18443 17.3503 1.47131L18.9379 4.97541C19.1576 5.46311 18.7675 6 18.1889 6H4.81073C4.22322 6 3.83304 5.44672 4.07074 4.95902L4.07522 4.95492Z" fill="white"/>
<path d="M3.00183 8H2.99817C2.4469 8 2 8.4469 2 8.99817V9.00183C2 9.5531 2.4469 10 2.99817 10H3.00183C3.5531 10 4 9.5531 4 9.00183V8.99817C4 8.4469 3.5531 8 3.00183 8Z" fill="white"/>
<path d="M19.0018 8H18.9982C18.4469 8 18 8.4469 18 8.99817V9.00183C18 9.5531 18.4469 10 18.9982 10H19.0018C19.5531 10 20 9.5531 20 9.00183V8.99817C20 8.4469 19.5531 8 19.0018 8Z" fill="white"/>
<path d="M17 8H6V10H17V8Z" fill="white"/>
</g>
<defs>
<clipPath id="clip0_530_10060">
<rect width="23" height="16" fill="white"/>
</clipPath>
</defs>
</svg>
