<svg width="26" height="26" viewBox="0 0 26 26" fill="none" xmlns="http://www.w3.org/2000/svg">
<path d="M13.0002 7.5835C10.0102 7.5835 7.5835 10.0102 7.5835 13.0002C7.5835 15.9902 10.0102 18.4168 13.0002 18.4168C15.9902 18.4168 18.4168 15.9902 18.4168 13.0002C18.4168 10.0102 15.9902 7.5835 13.0002 7.5835ZM13.0002 17.3335C10.606 17.3335 8.66683 15.3943 8.66683 13.0002C8.66683 10.606 10.606 8.66683 13.0002 8.66683C15.3943 8.66683 17.3335 10.606 17.3335 13.0002C17.3335 15.3943 15.3943 17.3335 13.0002 17.3335Z" fill="#7C5800"/>
<path d="M13.0002 15.7085C14.4959 15.7085 15.7085 14.4959 15.7085 13.0002C15.7085 11.5044 14.4959 10.2918 13.0002 10.2918C11.5044 10.2918 10.2918 11.5044 10.2918 13.0002C10.2918 14.4959 11.5044 15.7085 13.0002 15.7085Z" fill="#7C5800"/>
</svg>
