<svg width="22" height="22" viewBox="0 0 22 22" fill="none" xmlns="http://www.w3.org/2000/svg">
<path fill-rule="evenodd" clip-rule="evenodd" d="M7.0448 5.93249C6.73224 6.24505 6.55664 6.66898 6.55664 7.111V16.016C6.55664 16.6938 7.32275 17.0882 7.87442 16.6938L11.0011 14.4604L14.1278 16.6938C14.6789 17.0877 15.4455 16.6932 15.4455 16.0154V7.111C15.4455 6.66898 15.2699 6.24505 14.9574 5.93249C14.6448 5.61993 14.2209 5.44434 13.7789 5.44434H8.22331C7.78128 5.44434 7.35736 5.61993 7.0448 5.93249Z" fill="#F5F2F0"/>
<path d="M7.0448 5.93249L7.2805 6.16819L7.0448 5.93249ZM7.87442 16.6938L7.68067 16.4225L7.68054 16.4226L7.87442 16.6938ZM11.0011 14.4604L11.1948 14.1892L11.0011 14.0508L10.8073 14.1892L11.0011 14.4604ZM14.1278 16.6938L14.3216 16.4226L14.3215 16.4225L14.1278 16.6938ZM14.9574 5.93249L14.7217 6.16819V6.16819L14.9574 5.93249ZM6.88997 7.111C6.88997 6.75738 7.03045 6.41824 7.2805 6.16819L6.80909 5.69679C6.43402 6.07186 6.22331 6.58057 6.22331 7.111H6.88997ZM6.88997 16.016V7.111H6.22331V16.016H6.88997ZM7.68054 16.4226C7.34962 16.6592 6.88997 16.4227 6.88997 16.016H6.22331C6.22331 16.9648 7.29589 17.5172 8.06829 16.9649L7.68054 16.4226ZM10.8073 14.1892L7.68067 16.4225L8.06816 16.965L11.1948 14.7317L10.8073 14.1892ZM14.3215 16.4225L11.1948 14.1892L10.8073 14.7317L13.934 16.965L14.3215 16.4225ZM15.1122 16.0154C15.1122 16.4222 14.6519 16.6587 14.3216 16.4226L13.9339 16.965C14.7058 17.5166 15.7789 16.9642 15.7789 16.0154H15.1122ZM15.1122 7.111V16.0154H15.7789V7.111H15.1122ZM14.7217 6.16819C14.9717 6.41824 15.1122 6.75738 15.1122 7.111H15.7789C15.7789 6.58057 15.5681 6.07186 15.1931 5.69679L14.7217 6.16819ZM13.7789 5.77767C14.1325 5.77767 14.4716 5.91815 14.7217 6.16819L15.1931 5.69679C14.818 5.32172 14.3093 5.111 13.7789 5.111V5.77767ZM8.22331 5.77767H13.7789V5.111H8.22331V5.77767ZM7.2805 6.16819C7.53055 5.91815 7.86969 5.77767 8.22331 5.77767V5.111C7.69287 5.111 7.18417 5.32172 6.80909 5.69679L7.2805 6.16819Z" fill="#CDC8C3"/>
</svg>
