<svg width="14" height="14" viewBox="0 0 14 14" fill="none" xmlns="http://www.w3.org/2000/svg">
<rect x="0.582031" y="0.583252" width="12.8333" height="12.8333" rx="6.41667" fill="#EFEFEF"/>
<path fill-rule="evenodd" clip-rule="evenodd" d="M5.22593 6.27498C5.32561 6.17534 5.46077 6.11936 5.60171 6.11936C5.74265 6.11936 5.87782 6.17534 5.97749 6.27498L7.10483 7.40232L8.23217 6.27498C8.33183 6.17525 8.46703 6.11919 8.60802 6.11914C8.74902 6.11909 8.88426 6.17505 8.98399 6.27472C9.08372 6.37438 9.13978 6.50958 9.13983 6.65057C9.13988 6.79157 9.08392 6.92681 8.98426 7.02654L7.48061 8.53019C7.38093 8.62983 7.24577 8.68581 7.10483 8.68581C6.96389 8.68581 6.82872 8.62983 6.72905 8.53019L5.22593 7.02654C5.12629 6.92687 5.07031 6.7917 5.07031 6.65076C5.07031 6.50982 5.12629 6.37465 5.22593 6.27498Z" fill="#A2A2A2"/>
</svg>
