<svg width="14" height="14" viewBox="0 0 14 14" fill="none" xmlns="http://www.w3.org/2000/svg">
<rect width="12.8333" height="12.8333" rx="6.41667" transform="matrix(1 0 0 -1 0.582031 13.4167)" fill="#EFEFEF"/>
<path fill-rule="evenodd" clip-rule="evenodd" d="M5.22593 7.72502C5.32561 7.82466 5.46077 7.88064 5.60171 7.88064C5.74265 7.88064 5.87782 7.82466 5.97749 7.72502L7.10483 6.59768L8.23217 7.72502C8.33183 7.82475 8.46703 7.88081 8.60802 7.88086C8.74902 7.88091 8.88426 7.82495 8.98399 7.72528C9.08372 7.62562 9.13978 7.49042 9.13983 7.34943C9.13988 7.20843 9.08392 7.07319 8.98426 6.97346L7.48061 5.46981C7.38093 5.37017 7.24577 5.31419 7.10483 5.31419C6.96389 5.31419 6.82872 5.37017 6.72905 5.46981L5.22593 6.97346C5.12629 7.07313 5.07031 7.2083 5.07031 7.34924C5.07031 7.49018 5.12629 7.62535 5.22593 7.72502Z" fill="#A2A2A2"/>
</svg>
