<svg width="24" height="24" viewBox="0 0 24 24" fill="none" xmlns="http://www.w3.org/2000/svg">
<g clip-path="url(#clip0_400_42081)">
<path d="M6.27363 17.287L10.3326 13.2231C10.4402 13.1154 10.5369 12.9886 10.5559 12.8376C10.6048 12.4496 10.2902 12.2867 10.0372 12.2391C9.96026 12.2246 9.88319 12.2303 9.80569 12.2416C6.66264 12.6986 0.923611 12.7639 2.24222 9.46152C3.91075 5.28279 9.86692 10.0835 10.6504 10.3964C11.2772 10.6466 11.2944 10.0479 11.2246 9.71718C11.172 9.09056 7.66875 1.93838 11.7939 1.46587C15.9191 0.993351 13.5742 9.14132 13.3656 9.66366C13.1987 10.0815 13.6852 10.3798 14.0448 10.2377C15.6282 9.05302 18.9932 6.64182 19.7869 6.47422C20.779 6.26473 21.9805 7.04732 22.2426 8.66602C22.3868 9.55669 22.2372 10.1787 21.89 10.5871C21.575 10.9577 21.0616 11.0561 20.5814 11.1325C18.8141 11.4136 16.066 11.8349 15.1947 11.9081C14.3963 11.9751 14.3842 12.5096 14.5355 12.9267C14.6067 13.1228 14.7722 13.2627 14.9553 13.3628C16.3836 14.1438 17.7917 15.3157 18.8033 16.2722C19.5805 17.0071 20.1215 18.0541 19.7117 19.0422C19.5338 19.4711 19.2479 19.9177 18.8031 20.3135C18.0865 20.9513 17.3033 20.8773 16.698 20.6091C16.0962 20.3425 15.7364 19.7488 15.4585 19.1521L13.2117 14.3271C13.1429 14.1792 13.0481 14.0374 12.9025 13.9638C12.4771 13.7485 12.2056 14.0854 12.1151 14.3121L10.3444 19.4429C10.2392 19.7477 10.1191 20.0532 9.90379 20.2932C9.36691 20.8919 8.31157 21.4698 6.8448 20.6864C5.35555 19.891 5.41311 18.7288 5.73388 17.9972C5.85434 17.7225 6.06165 17.4993 6.27363 17.287Z" fill="#271900"/>
</g>
<defs>
<clipPath id="clip0_400_42081">
<rect width="24" height="24" fill="white"/>
</clipPath>
</defs>
</svg>
