<svg width="24" height="24" viewBox="0 0 24 24" fill="none" xmlns="http://www.w3.org/2000/svg">
<g clip-path="url(#clip0_40000927_9981)">
<path d="M6.2735 17.2871L10.3325 13.2231C10.44 13.1154 10.5367 12.9887 10.5558 12.8376C10.6047 12.4497 10.2901 12.2867 10.0371 12.2392C9.96013 12.2247 9.88306 12.2304 9.80557 12.2416C6.66252 12.6986 0.923489 12.764 2.2421 9.46158C3.91062 5.28285 9.86679 10.0836 10.6503 10.3964C11.2771 10.6467 11.2942 10.0479 11.2244 9.71724C11.1718 9.09062 7.66863 1.93844 11.7938 1.46593C15.919 0.993412 13.574 9.14138 13.3655 9.66372C13.1986 10.0816 13.685 10.3798 14.0447 10.2377C15.628 9.05308 18.9931 6.64188 19.7868 6.47429C20.7788 6.26479 21.9804 7.04738 22.2425 8.66608C22.3867 9.55675 22.2371 10.1787 21.8899 10.5872C21.5749 10.9577 21.0615 11.0561 20.5813 11.1325C18.8139 11.4137 16.0658 11.835 15.1946 11.9081C14.3962 11.9751 14.384 12.5097 14.5354 12.9268C14.6065 13.1229 14.7721 13.2627 14.9551 13.3628C16.3835 14.1439 17.7916 15.3157 18.8031 16.2722C19.5803 17.0072 20.1214 18.0542 19.7116 19.0422C19.5337 19.4711 19.2477 19.9177 18.803 20.3135C18.0864 20.9513 17.3032 20.8774 16.6979 20.6092C16.0961 20.3426 15.7363 19.7489 15.4584 19.1522L13.2116 14.3272C13.1428 14.1793 13.0479 14.0375 12.9024 13.9638C12.477 13.7485 12.2055 14.0855 12.115 14.3122L10.3443 19.443C10.2391 19.7478 10.1189 20.0532 9.90367 20.2933C9.36679 20.892 8.31145 21.4699 6.84467 20.6865C5.35543 19.8911 5.41298 18.7289 5.73376 17.9973C5.85422 17.7226 6.06153 17.4993 6.2735 17.2871Z" fill="#412D00" stroke="#271900"/>
</g>
<defs>
<clipPath id="clip0_40000927_9981">
<rect width="24" height="24" fill="white"/>
</clipPath>
</defs>
</svg>
