<svg width="24" height="24" viewBox="0 0 24 24" fill="none" xmlns="http://www.w3.org/2000/svg">
<g clip-path="url(#clip0_400_42081)">
<path d="M6.27363 17.2871L10.3326 13.2231C10.4402 13.1154 10.5369 12.9887 10.5559 12.8376C10.6048 12.4497 10.2902 12.2867 10.0372 12.2392C9.96026 12.2247 9.88319 12.2304 9.80569 12.2416C6.66264 12.6986 0.923611 12.764 2.24222 9.46158C3.91075 5.28285 9.86692 10.0836 10.6504 10.3964C11.2772 10.6467 11.2944 10.0479 11.2246 9.71724C11.172 9.09062 7.66875 1.93844 11.7939 1.46593C15.9191 0.993412 13.5742 9.14138 13.3656 9.66372C13.1987 10.0816 13.6852 10.3798 14.0448 10.2377C15.6282 9.05308 18.9932 6.64188 19.7869 6.47429C20.779 6.26479 21.9805 7.04738 22.2426 8.66608C22.3868 9.55675 22.2372 10.1787 21.89 10.5872C21.575 10.9577 21.0616 11.0561 20.5814 11.1325C18.8141 11.4137 16.066 11.835 15.1947 11.9081C14.3963 11.9751 14.3842 12.5097 14.5355 12.9268C14.6067 13.1229 14.7722 13.2627 14.9553 13.3628C16.3836 14.1439 17.7917 15.3157 18.8033 16.2722C19.5805 17.0072 20.1215 18.0542 19.7117 19.0422C19.5338 19.4711 19.2479 19.9177 18.8031 20.3135C18.0865 20.9513 17.3033 20.8774 16.698 20.6092C16.0962 20.3426 15.7364 19.7489 15.4585 19.1522L13.2117 14.3272C13.1429 14.1793 13.0481 14.0375 12.9025 13.9638C12.4771 13.7485 12.2056 14.0855 12.1151 14.3122L10.3444 19.443C10.2392 19.7478 10.1191 20.0532 9.90379 20.2933C9.36691 20.892 8.31157 21.4699 6.8448 20.6865C5.35555 19.8911 5.41311 18.7289 5.73388 17.9973C5.85434 17.7226 6.06165 17.4993 6.27363 17.2871Z" fill="#271900" stroke="#271900"/>
</g>
<defs>
<clipPath id="clip0_400_42081">
<rect width="24" height="24" fill="white"/>
</clipPath>
</defs>
</svg>
