<svg width="24" height="24" viewBox="0 0 24 24" fill="none" xmlns="http://www.w3.org/2000/svg">
<circle cx="16.0289" cy="8.51522" r="6.9703" fill="#FFD25F"/>
<circle cx="13.0875" cy="7.31702" r="0.544554" fill="white"/>
<circle cx="17.6617" cy="7.31702" r="0.544554" fill="white"/>
<path fill-rule="evenodd" clip-rule="evenodd" d="M14.1663 9.16895C14.3401 9.16895 14.481 9.29497 14.481 9.45044C14.481 9.94644 14.9306 10.3485 15.4852 10.3485C16.0398 10.3485 16.4894 9.94644 16.4894 9.45044C16.4894 9.29497 16.6303 9.16895 16.8041 9.16895C16.978 9.16895 17.1189 9.29497 17.1189 9.45044C17.1189 10.2574 16.3875 10.9115 15.4852 10.9115C14.583 10.9115 13.8516 10.2574 13.8516 9.45044C13.8516 9.29497 13.9925 9.16895 14.1663 9.16895Z" fill="white"/>
<circle cx="7.9703" cy="15.4849" r="6.9703" fill="#FFB700"/>
<circle cx="7.20862" cy="12.9801" r="0.544554" fill="white"/>
<circle cx="11.7828" cy="12.9801" r="0.544554" fill="white"/>
<path d="M9.71318 15.2669C10.2852 15.2669 10.7713 14.8994 10.9485 14.3877C11.0272 14.1604 10.8251 13.96 10.5845 13.96H8.84189C8.60129 13.96 8.39914 14.1604 8.47786 14.3877C8.65503 14.8994 9.14119 15.2669 9.71318 15.2669Z" fill="white"/>
</svg>
