<svg width="24" height="24" viewBox="0 0 24 24" fill="none" xmlns="http://www.w3.org/2000/svg">
<path fill-rule="evenodd" clip-rule="evenodd" d="M1 6.49961C1 4.06956 2.96995 2.09961 5.4 2.09961H18.6C21.0301 2.09961 23 4.06956 23 6.49961V15.1811C23 17.6111 21.0301 19.5811 18.6 19.5811H9.32956L6.75306 21.8392C6.58384 21.9875 6.31873 21.8673 6.31873 21.6423V19.5811H5.4C2.96995 19.5811 1 17.6111 1 15.1811V6.49961ZM12.3141 6.37336C12.2157 6.06841 11.7843 6.06841 11.6859 6.37336L10.8455 8.97943C10.8014 9.116 10.6742 9.20845 10.5307 9.20814L7.79243 9.20216C7.47201 9.20145 7.33869 9.61179 7.59832 9.79955L9.81712 11.4042C9.9334 11.4883 9.982 11.6379 9.93736 11.7743L9.08551 14.3766C8.98583 14.6812 9.33488 14.9348 9.59368 14.7459L11.8054 13.1315C11.9214 13.0469 12.0786 13.0469 12.1946 13.1315L14.4063 14.7459C14.6651 14.9348 15.0142 14.6812 14.9145 14.3766L14.0626 11.7743C14.018 11.6379 14.0666 11.4883 14.1829 11.4042L16.4017 9.79955C16.6613 9.61179 16.528 9.20145 16.2076 9.20216L13.4693 9.20814C13.3258 9.20845 13.1986 9.116 13.1545 8.97943L12.3141 6.37336Z" fill="#FFB700"/>
</svg>
