<svg width="16" height="17" viewBox="0 0 16 17" fill="none" xmlns="http://www.w3.org/2000/svg">
<rect y="0.5" width="16" height="16" rx="8" fill="#3ECA61"/>
<path fill-rule="evenodd" clip-rule="evenodd" d="M11.9778 5.62949C12.095 5.74669 12.1608 5.90564 12.1608 6.07136C12.1608 6.23709 12.095 6.39603 11.9778 6.51324L7.29325 11.1978C7.23135 11.2597 7.15785 11.3089 7.07695 11.3424C6.99606 11.3759 6.90936 11.3931 6.82179 11.3931C6.73423 11.3931 6.64753 11.3759 6.56664 11.3424C6.48574 11.3089 6.41224 11.2597 6.35034 11.1978L4.02284 8.87074C3.96314 8.81308 3.91553 8.74412 3.88277 8.66787C3.85002 8.59161 3.83278 8.5096 3.83205 8.42661C3.83133 8.34363 3.84715 8.26133 3.87857 8.18452C3.91 8.10771 3.95641 8.03793 4.01509 7.97924C4.07377 7.92056 4.14355 7.87415 4.22037 7.84273C4.29718 7.8113 4.37948 7.79549 4.46246 7.79621C4.54545 7.79693 4.62746 7.81417 4.70371 7.84693C4.77997 7.87968 4.84893 7.9273 4.90659 7.98699L6.82159 9.90199L11.0937 5.62949C11.1517 5.57141 11.2206 5.52534 11.2965 5.4939C11.3723 5.46247 11.4536 5.44629 11.5358 5.44629C11.6179 5.44629 11.6992 5.46247 11.775 5.4939C11.8509 5.52534 11.9198 5.57141 11.9778 5.62949Z" fill="white"/>
</svg>
