<svg width="16" height="17" viewBox="0 0 16 17" fill="none" xmlns="http://www.w3.org/2000/svg">
<path id="Vector" d="M8 0.5C12.4184 0.5 16 4.0816 16 8.5C16 12.9184 12.4184 16.5 8 16.5C3.5816 16.5 0 12.9184 0 8.5C0 4.0816 3.5816 0.5 8 0.5ZM8 10.9C7.78783 10.9 7.58434 10.9843 7.43431 11.1343C7.28429 11.2843 7.2 11.4878 7.2 11.7C7.2 11.9122 7.28429 12.1157 7.43431 12.2657C7.58434 12.4157 7.78783 12.5 8 12.5C8.21217 12.5 8.41566 12.4157 8.56569 12.2657C8.71571 12.1157 8.8 11.9122 8.8 11.7C8.8 11.4878 8.71571 11.2843 8.56569 11.1343C8.41566 10.9843 8.21217 10.9 8 10.9ZM8 3.7C7.80405 3.70003 7.61493 3.77196 7.4685 3.90217C7.32207 4.03238 7.22853 4.2118 7.2056 4.4064L7.2 4.5V9.3C7.20023 9.5039 7.2783 9.70003 7.41828 9.84829C7.55825 9.99656 7.74956 10.0858 7.95312 10.0977C8.15667 10.1097 8.3571 10.0435 8.51347 9.91259C8.66983 9.78172 8.77032 9.59608 8.7944 9.3936L8.8 9.3V4.5C8.8 4.28783 8.71571 4.08434 8.56569 3.93431C8.41566 3.78429 8.21217 3.7 8 3.7Z" fill="#FF5449"/>
</svg>
