<svg width="24" height="24" viewBox="0 0 24 24" fill="none" xmlns="http://www.w3.org/2000/svg">
<g clip-path="url(#clip0_40000927_20872)">
<path fill-rule="evenodd" clip-rule="evenodd" d="M14.07 19.7272C12.3189 20.1962 10.4605 20.0569 8.79898 19.3321C7.13744 18.6072 5.77121 17.3397 4.92396 15.7372C4.80024 15.5024 4.58834 15.3265 4.33489 15.248C4.08143 15.1695 3.80718 15.1949 3.57246 15.3187C3.33774 15.4424 3.16179 15.6543 3.08331 15.9077C3.00482 16.1612 3.03024 16.4354 3.15396 16.6702C5.28396 20.7102 9.98996 22.8912 14.588 21.6602C19.923 20.2302 23.088 14.7462 21.659 9.41215C20.229 4.07715 14.746 0.912155 9.41196 2.34115C7.29852 2.90738 5.42901 4.15093 4.08991 5.88126C2.7508 7.61159 2.01595 9.73325 1.99796 11.9212C1.99096 12.8242 2.99296 13.3232 3.71096 12.8402L6.38396 11.0392C7.39196 10.3592 6.71596 8.78816 5.52996 9.05316L4.47196 9.28915C4.93832 7.99486 5.73059 6.8427 6.77222 5.94397C7.81385 5.04525 9.06965 4.43033 10.4183 4.15862C11.767 3.88691 13.1629 3.96759 14.4713 4.39287C15.7796 4.81815 16.9562 5.57365 17.8874 6.58639C18.8185 7.59914 19.4728 8.8349 19.7869 10.1743C20.1011 11.5137 20.0645 12.9115 19.6807 14.2327C19.297 15.5538 18.579 16.7536 17.5961 17.7163C16.6133 18.679 15.3988 19.3719 14.07 19.7282V19.7272Z" fill="#2FB350"/>
</g>
<defs>
<clipPath id="clip0_40000927_20872">
<rect width="24" height="24" fill="white"/>
</clipPath>
</defs>
</svg>
