<svg width="24" height="24" viewBox="0 0 24 24" fill="none" xmlns="http://www.w3.org/2000/svg">
<path d="M4.5 22C5.875 22 7 20.875 7 19.5V10.75C7 9.375 5.875 8.25 4.5 8.25C3.125 8.25 2 9.375 2 10.75V19.5C2 20.875 3.125 22 4.5 22ZM17 15.75V19.5C17 20.875 18.125 22 19.5 22C20.875 22 22 20.875 22 19.5V15.75C22 14.375 20.875 13.25 19.5 13.25C18.125 13.25 17 14.375 17 15.75ZM12 22C13.375 22 14.5 20.875 14.5 19.5V4.5C14.5 3.125 13.375 2 12 2C10.625 2 9.5 3.125 9.5 4.5V19.5C9.5 20.875 10.625 22 12 22Z" fill="#0F0C0C"/>
</svg>
