<svg width="24" height="24" viewBox="0 0 24 24" fill="none" xmlns="http://www.w3.org/2000/svg">
<path d="M13 4C13 3.44772 12.5523 3 12 3H7C5.34315 3 4 4.34315 4 6V18C4 19.6569 5.34315 21 7 21H11.5C12.0523 21 12.5 20.5523 12.5 20C12.5 19.4477 12.0523 19 11.5 19H7C6.44772 19 6 18.5523 6 18V6C6 5.44772 6.44772 5 7 5H12C12.5523 5 13 4.55228 13 4Z" fill="#0F0C0C"/>
<path d="M14.5857 11L15.707 9.87868C16.0976 9.48816 16.0976 8.85499 15.707 8.46447C15.3165 8.07394 14.6834 8.07394 14.2928 8.46447L11.4644 11.2929C11.0739 11.6834 11.0739 12.3166 11.4644 12.7071L14.2928 15.5355C14.6834 15.9261 15.3165 15.9261 15.707 15.5355C16.0976 15.145 16.0976 14.5118 15.707 14.1213L14.5857 13H20C20.5523 13 21 12.5523 21 12C21 11.4477 20.5523 11 20 11H14.5857Z" fill="#0F0C0C"/>
</svg>
