<svg width="24" height="24" viewBox="0 0 24 24" fill="none" xmlns="http://www.w3.org/2000/svg">
<path d="M13 4C13 3.44772 12.5523 3 12 3H7C5.34315 3 4 4.34315 4 6V18C4 19.6569 5.34315 21 7 21H11.5C12.0523 21 12.5 20.5523 12.5 20C12.5 19.4477 12.0523 19 11.5 19H7C6.44772 19 6 18.5523 6 18V6C6 5.44772 6.44772 5 7 5H12C12.5523 5 13 4.55228 13 4Z" fill="#0F0C0C"/>
<path d="M11 12C11 11.4477 11.4477 11 12 11H17.4142L16.2928 9.87868C15.9023 9.48816 15.9023 8.85499 16.2928 8.46447C16.6834 8.07394 17.3165 8.07394 17.707 8.46447L20.5355 11.2929C20.926 11.6834 20.926 12.3166 20.5355 12.7071L17.707 15.5355C17.3165 15.9261 16.6834 15.9261 16.2928 15.5355C15.9023 15.145 15.9023 14.5118 16.2928 14.1213L17.4142 13H12C11.4477 13 11 12.5523 11 12Z" fill="#0F0C0C"/>
</svg>
