<svg width="24" height="24" viewBox="0 0 24 24" fill="none" xmlns="http://www.w3.org/2000/svg">
<path d="M18.6667 2C19.0872 1.99987 19.4922 2.15905 19.8005 2.44564C20.1089 2.73224 20.2977 3.12505 20.3292 3.54535L20.3334 3.67065V13.6946C20.3335 14.116 20.1747 14.522 19.8888 14.8311C19.6029 15.1401 19.211 15.3294 18.7917 15.361L18.6667 15.3652H5.33341C4.91293 15.3653 4.50794 15.2062 4.19962 14.9196C3.89131 14.633 3.70245 14.2402 3.67091 13.8199L3.66675 13.6946V3.67065C3.66662 3.24917 3.82542 2.84321 4.11133 2.53415C4.39724 2.2251 4.78912 2.03579 5.20841 2.00418L5.33341 2H18.6667ZM18.6667 3.67065H5.33341V13.6946H18.6667V3.67065ZM16.1667 10.3533C16.3791 10.3535 16.5834 10.435 16.7379 10.5812C16.8923 10.7273 16.9853 10.9271 16.9977 11.1396C17.0102 11.3522 16.9412 11.5615 16.8049 11.7247C16.6685 11.888 16.4752 11.9929 16.2642 12.0181L16.1667 12.0239H7.83341C7.62101 12.0237 7.41672 11.9422 7.26227 11.796C7.10783 11.6498 7.01489 11.4501 7.00244 11.2375C6.98999 11.025 7.05898 10.8157 7.1953 10.6524C7.33163 10.4892 7.525 10.3843 7.73591 10.3591L7.83341 10.3533H16.1667ZM8.66675 7.84728C8.88776 7.84728 9.09972 7.93529 9.256 8.09194C9.41228 8.2486 9.50008 8.46107 9.50008 8.68261C9.50008 8.90415 9.41228 9.11662 9.256 9.27327C9.09972 9.42993 8.88776 9.51793 8.66675 9.51793H7.83341C7.6124 9.51793 7.40044 9.42993 7.24416 9.27327C7.08788 9.11662 7.00008 8.90415 7.00008 8.68261C7.00008 8.46107 7.08788 8.2486 7.24416 8.09194C7.40044 7.93529 7.6124 7.84728 7.83341 7.84728H8.66675ZM12.4167 7.84728C12.6291 7.84752 12.8334 7.92904 12.9879 8.0752C13.1423 8.22135 13.2353 8.42111 13.2477 8.63365C13.2602 8.84619 13.1912 9.05548 13.0549 9.21875C12.9185 9.38201 12.7252 9.48694 12.5142 9.51209L12.4167 9.51793H11.5834C11.371 9.5177 11.1667 9.43617 11.0123 9.29002C10.8578 9.14386 10.7649 8.9441 10.7524 8.73156C10.74 8.51902 10.809 8.30974 10.9453 8.14647C11.0816 7.9832 11.275 7.87828 11.4859 7.85313L11.5834 7.84728H12.4167ZM16.1667 7.84728C16.3878 7.84728 16.5997 7.93529 16.756 8.09194C16.9123 8.2486 17.0001 8.46107 17.0001 8.68261C17.0001 8.90415 16.9123 9.11662 16.756 9.27327C16.5997 9.42993 16.3878 9.51793 16.1667 9.51793H15.3334C15.1124 9.51793 14.9004 9.42993 14.7442 9.27327C14.5879 9.11662 14.5001 8.90415 14.5001 8.68261C14.5001 8.46107 14.5879 8.2486 14.7442 8.09194C14.9004 7.93529 15.1124 7.84728 15.3334 7.84728H16.1667ZM8.66675 5.3413C8.87915 5.34154 9.08344 5.42306 9.23789 5.56922C9.39233 5.71538 9.48528 5.91513 9.49773 6.12768C9.51017 6.34022 9.44119 6.5495 9.30486 6.71277C9.16854 6.87604 8.97516 6.98096 8.76425 7.00611L8.66675 7.01196H7.83341C7.62101 7.01172 7.41672 6.93019 7.26227 6.78404C7.10783 6.63788 7.01489 6.43813 7.00244 6.22558C6.98999 6.01304 7.05898 5.80376 7.1953 5.64049C7.33163 5.47722 7.525 5.3723 7.73591 5.34715L7.83341 5.3413H8.66675ZM12.4167 5.3413C12.6378 5.3413 12.8497 5.42931 13.006 5.58597C13.1623 5.74262 13.2501 5.95509 13.2501 6.17663C13.2501 6.39817 13.1623 6.61064 13.006 6.76729C12.8497 6.92395 12.6378 7.01196 12.4167 7.01196H11.5834C11.3624 7.01196 11.1504 6.92395 10.9942 6.76729C10.8379 6.61064 10.7501 6.39817 10.7501 6.17663C10.7501 5.95509 10.8379 5.74262 10.9942 5.58597C11.1504 5.42931 11.3624 5.3413 11.5834 5.3413H12.4167ZM16.1667 5.3413C16.3791 5.34154 16.5834 5.42306 16.7379 5.56922C16.8923 5.71538 16.9853 5.91513 16.9977 6.12768C17.0102 6.34022 16.9412 6.5495 16.8049 6.71277C16.6685 6.87604 16.4752 6.98096 16.2642 7.00611L16.1667 7.01196H15.3334C15.121 7.01172 14.9167 6.93019 14.7623 6.78404C14.6078 6.63788 14.5149 6.43813 14.5024 6.22558C14.49 6.01304 14.559 5.80376 14.6953 5.64049C14.8316 5.47722 15.025 5.3723 15.2359 5.34715L15.3334 5.3413H16.1667Z" fill="#271900"/>
<path fill-rule="evenodd" clip-rule="evenodd" d="M12.3928 21.6063C12.1759 21.8238 11.8241 21.8238 11.6072 21.6063L8.46447 18.4561C8.24751 18.2386 8.24751 17.886 8.46447 17.6685C8.68142 17.4511 9.03318 17.4511 9.25014 17.6685L12 20.425L14.7499 17.6685C14.9668 17.4511 15.3186 17.4511 15.5355 17.6685C15.7525 17.886 15.7525 18.2386 15.5355 18.4561L12.3928 21.6063Z" fill="#271900"/>
</svg>
