<svg width="24" height="24" viewBox="0 0 24 24" fill="none" xmlns="http://www.w3.org/2000/svg">
<path fill-rule="evenodd" clip-rule="evenodd" d="M9.92954 19.7275C13.6059 20.7126 17.3728 18.9693 19.0757 15.7374C19.3331 15.2488 19.9379 15.0614 20.4265 15.3189C20.9151 15.5763 21.1025 16.1811 20.8451 16.6697C18.7163 20.7099 14.01 22.8914 9.41191 21.6594C4.07724 20.2299 0.911422 14.7466 2.34084 9.41191C3.77026 4.07724 9.25363 0.91142 14.5883 2.34084C18.5921 3.41366 21.3721 6.76927 21.9079 10.6285C21.967 11.0542 21.9989 11.4861 22.0021 11.9218C22.0087 12.8242 21.0066 13.3233 20.2894 12.84L17.6158 11.0386C16.6077 10.3594 17.2837 8.78798 18.4701 9.05277L19.5276 9.2888C18.6682 6.90939 16.6973 4.97651 14.0707 4.27269C9.80292 3.12916 5.41623 5.66182 4.27269 9.92954C3.12916 14.1973 5.66182 18.584 9.92954 19.7275Z" fill="#0F0C0C"/>
</svg>
