<svg width="22" height="22" viewBox="0 0 22 22" fill="none" xmlns="http://www.w3.org/2000/svg">
<path d="M11.0001 6.41659C12.4231 6.41653 13.7907 6.96802 14.8157 7.95518C15.8406 8.94234 16.443 10.2883 16.4964 11.7103L16.5001 11.9166V18.3333H17.4167C17.6504 18.3335 17.8751 18.423 18.045 18.5834C18.2149 18.7438 18.3171 18.963 18.3308 19.1962C18.3445 19.4294 18.2686 19.6591 18.1187 19.8383C17.9687 20.0174 17.756 20.1326 17.524 20.1602L17.4167 20.1666H4.58341C4.34977 20.1663 4.12504 20.0769 3.95515 19.9165C3.78526 19.7561 3.68302 19.5369 3.66933 19.3036C3.65564 19.0704 3.73152 18.8407 3.88148 18.6616C4.03144 18.4824 4.24415 18.3673 4.47616 18.3397L4.58341 18.3333H5.50007V11.9166C5.50007 10.4579 6.07954 9.05895 7.11099 8.0275C8.14244 6.99605 9.54138 6.41659 11.0001 6.41659ZM11.0001 8.24992C10.0276 8.24992 9.09498 8.63623 8.40735 9.32386C7.71971 10.0115 7.33341 10.9441 7.33341 11.9166V18.3333H14.6667V11.9166C14.6667 10.9441 14.2804 10.0115 13.5928 9.32386C12.9052 8.63623 11.9725 8.24992 11.0001 8.24992ZM11.4722 10.6727C11.6802 10.7979 11.8301 11.0006 11.8889 11.2362C11.9477 11.4718 11.9105 11.7211 11.7857 11.9294L11.2448 12.8333H12.3586C13.0782 12.8333 13.5227 13.6188 13.1524 14.2358L11.7866 16.5137C11.6614 16.7223 11.4584 16.8726 11.2224 16.9315C10.9864 16.9905 10.7366 16.9533 10.528 16.8281C10.3194 16.7029 10.1691 16.4999 10.1101 16.2639C10.0512 16.0279 10.0884 15.7781 10.2136 15.5695L10.7562 14.6666H9.64157C9.47769 14.6666 9.31674 14.6231 9.17516 14.5406C9.03358 14.4581 8.91644 14.3394 8.83572 14.1968C8.75499 14.0542 8.71357 13.8927 8.71568 13.7288C8.71779 13.5649 8.76336 13.4046 8.84774 13.2641L10.2136 10.9862C10.2756 10.8829 10.3573 10.7929 10.4542 10.7212C10.551 10.6495 10.661 10.5977 10.7779 10.5686C10.8948 10.5394 11.0163 10.5337 11.1354 10.5515C11.2545 10.5694 11.3689 10.6105 11.4722 10.6727ZM5.16641 4.78675L5.81449 5.43484C5.97746 5.60838 6.06652 5.83853 6.06283 6.07657C6.05913 6.31462 5.96296 6.54189 5.79468 6.71029C5.6264 6.87869 5.3992 6.97502 5.16115 6.97888C4.92311 6.98275 4.6929 6.89385 4.51924 6.731L3.87116 6.08292C3.78361 5.99836 3.71377 5.89721 3.66573 5.78537C3.61769 5.67354 3.5924 5.55325 3.59134 5.43154C3.59029 5.30982 3.61348 5.18912 3.65957 5.07646C3.70566 4.96381 3.77373 4.86146 3.85979 4.77539C3.94586 4.68932 4.04821 4.62126 4.16086 4.57517C4.27352 4.52907 4.39423 4.50588 4.51594 4.50694C4.63765 4.508 4.75794 4.53328 4.86978 4.58133C4.98161 4.62937 5.08185 4.6992 5.16641 4.78675ZM18.1299 4.78675C18.2877 4.9446 18.3825 5.1546 18.3966 5.37738C18.4106 5.60015 18.3428 5.82038 18.206 5.99675L18.1299 6.08292L17.4818 6.731C17.3169 6.8954 17.0955 6.99085 16.8627 6.99796C16.6299 7.00507 16.4032 6.92331 16.2285 6.76927C16.0538 6.61524 15.9443 6.4005 15.9222 6.16865C15.9001 5.9368 15.9671 5.70524 16.1096 5.521L16.1857 5.43484L16.8337 4.78675C17.0056 4.6149 17.2388 4.51836 17.4818 4.51836C17.7249 4.51836 17.958 4.6149 18.1299 4.78675ZM11.0001 1.83325C11.2246 1.83328 11.4413 1.91571 11.6091 2.06491C11.7769 2.2141 11.8841 2.41969 11.9103 2.64267L11.9167 2.74992V3.66659C11.9165 3.90022 11.827 4.12495 11.6666 4.29484C11.5062 4.46473 11.287 4.56697 11.0538 4.58066C10.8206 4.59435 10.5909 4.51847 10.4117 4.36851C10.2326 4.21855 10.1174 4.00584 10.0898 3.77384L10.0834 3.66659V2.74992C10.0834 2.5068 10.18 2.27365 10.3519 2.10174C10.5238 1.92983 10.757 1.83325 11.0001 1.83325Z" fill="#09244B"/>
</svg>
