<svg width="24" height="24" viewBox="0 0 24 24" fill="none" xmlns="http://www.w3.org/2000/svg">
<path fill-rule="evenodd" clip-rule="evenodd" d="M13.4141 2.10043C12.6331 1.31939 11.3668 1.31939 10.5857 2.10044L8.68622 3.99993H5.99991C4.89534 3.99993 3.99991 4.89536 3.99991 5.99993V8.68624L2.10044 10.5857C1.31939 11.3668 1.31939 12.6331 2.10043 13.4141L3.99991 15.3136V17.9999C3.99991 19.1045 4.89534 19.9999 5.99991 19.9999H8.68622L10.5857 21.8994C11.3668 22.6805 12.6331 22.6805 13.4141 21.8994L15.3136 19.9999H17.9999C19.1045 19.9999 19.9999 19.1045 19.9999 17.9999V15.3137L21.8994 13.4141C22.6805 12.6331 22.6805 11.3668 21.8994 10.5857L19.9999 8.6862V5.99993C19.9999 4.89536 19.1045 3.99993 17.9999 3.99993L15.3136 3.99993L13.4141 2.10043ZM11.9999 3.51465L13.8994 5.41414C14.2745 5.78922 14.7832 5.99993 15.3136 5.99993H17.9999V8.6862C17.9999 9.21664 18.2106 9.72534 18.5857 10.1004L20.4852 11.9999L18.5857 13.8994C18.2106 14.2745 17.9999 14.7832 17.9999 15.3137V17.9999H15.3136C14.7832 17.9999 14.2745 18.2106 13.8994 18.5857L11.9999 20.4852L10.1004 18.5857C9.72536 18.2106 9.21666 17.9999 8.68622 17.9999H5.99991V15.3136C5.99991 14.7832 5.7892 14.2745 5.41412 13.8994L3.51465 11.9999L5.41412 10.1005C5.7892 9.72538 5.99991 9.21667 5.99991 8.68624V5.99993H8.68622C9.21665 5.99993 9.72536 5.78922 10.1004 5.41414L11.9999 3.51465ZM9.99994 11.9999C9.99994 10.8953 10.8954 9.99988 11.9999 9.99988C13.1045 9.99988 13.9999 10.8953 13.9999 11.9999C13.9999 13.1044 13.1045 13.9999 11.9999 13.9999C10.8954 13.9999 9.99994 13.1044 9.99994 11.9999ZM11.9999 7.99988C9.7908 7.99988 7.99994 9.79074 7.99994 11.9999C7.99994 14.209 9.7908 15.9999 11.9999 15.9999C14.2091 15.9999 15.9999 14.209 15.9999 11.9999C15.9999 9.79074 14.2091 7.99988 11.9999 7.99988Z" fill="#09244B"/>
</svg>
