<svg width="24" height="24" viewBox="0 0 24 24" fill="none" xmlns="http://www.w3.org/2000/svg">
<path fill-rule="evenodd" clip-rule="evenodd" d="M15 5.5C15 3.567 16.567 2 18.5 2C20.433 2 22 3.567 22 5.5C22 7.433 20.433 9 18.5 9C17.5174 9 16.6293 8.59506 15.9936 7.94296L11.6699 10.2095C11.8831 10.7654 12 11.3691 12 12C12 12.6309 11.8831 13.2346 11.6699 13.7905L15.9936 16.057C16.6293 15.4049 17.5174 15 18.5 15C20.433 15 22 16.567 22 18.5C22 20.433 20.433 22 18.5 22C16.567 22 15 20.433 15 18.5C15 18.2702 15.0221 18.0455 15.0644 17.8281L10.5885 15.4817C9.67983 16.4181 8.40787 17 7 17C4.23858 17 2 14.7614 2 12C2 9.23858 4.23858 7 7 7C8.40786 7 9.67982 7.58187 10.5885 8.51824L15.0644 6.17191C15.0222 5.95446 15 5.72982 15 5.5ZM18.5 4C17.6716 4 17 4.67157 17 5.5C17 6.32843 17.6716 7 18.5 7C19.3284 7 20 6.32843 20 5.5C20 4.67157 19.3284 4 18.5 4ZM4 12C4 10.3431 5.34315 9 7 9C8.65685 9 10 10.3431 10 12C10 13.6569 8.65685 15 7 15C5.34315 15 4 13.6569 4 12ZM17 18.5C17 17.6716 17.6716 17 18.5 17C19.3284 17 20 17.6716 20 18.5C20 19.3284 19.3284 20 18.5 20C17.6716 20 17 19.3284 17 18.5Z" fill="#0F0C0C"/>
</svg>
