<svg width="24" height="24" viewBox="0 0 24 24" fill="none" xmlns="http://www.w3.org/2000/svg">
<path fill-rule="evenodd" clip-rule="evenodd" d="M9.894 16.002L10.1215 19.576C10.2008 20.38 11.0467 20.9293 11.8253 20.4902C14.0104 19.257 16.0168 17.7188 17.9553 16.1321C19.1732 15.1172 20.3535 14.0504 21.4496 12.9037C21.9118 12.42 21.9575 11.6189 21.4737 11.1124C20.3603 9.94706 18.7862 8.48751 16.8271 6.94049C15.2394 5.69825 13.597 4.53773 11.8571 3.51856C11.0203 3.04172 10.1902 3.69599 10.1141 4.49112L9.891 8.05196C5.37372 8.52394 2 12.5095 2 17C2 19.6753 3.06759 19.4113 4.91368 17.8247C6.31999 16.6644 8.07832 16.0402 9.894 16.002ZM4.0752 15.9432C5.66428 14.7724 7.57206 14.0906 9.58686 14.0084L9.60656 14.0076L11.311 13.9716C11.5806 13.966 11.8061 14.175 11.8208 14.4442L12.0177 18.0397C13.6209 17.0186 15.1491 15.8442 16.6817 14.5901C17.6714 13.765 18.6261 12.9036 19.5391 11.9946C18.5348 10.9901 17.2038 9.78654 15.5911 8.51285C14.4254 7.60097 13.2427 6.74514 12.0229 5.96524L11.8314 9.43709C11.8178 9.68226 11.6283 9.88133 11.3841 9.90684L10.0227 10.0491C6.95767 10.4148 4.52633 12.8111 4.0752 15.9432Z" fill="#0F0C0C"/>
</svg>
