<svg width="24" height="24" viewBox="0 0 24 24" fill="none" xmlns="http://www.w3.org/2000/svg">
<path fill-rule="evenodd" clip-rule="evenodd" d="M5.33325 6.16663C5.33325 5.50358 5.59664 4.8677 6.06549 4.39886C6.53433 3.93002 7.17021 3.66663 7.83325 3.66663H16.1666C16.8296 3.66663 17.4655 3.93002 17.9344 4.39886C18.4032 4.8677 18.6666 5.50358 18.6666 6.16663V19.5233C18.6666 20.54 17.5166 21.1316 16.6899 20.5408L11.9999 17.1908L7.30992 20.5408C6.48242 21.1325 5.33325 20.5408 5.33325 19.5241V6.16663ZM7.83325 5.33329C7.61224 5.33329 7.40028 5.42109 7.244 5.57737C7.08772 5.73365 6.99992 5.94561 6.99992 6.16663V18.7141L11.2733 15.6616C11.4853 15.5101 11.7393 15.4287 11.9999 15.4287C12.2605 15.4287 12.5146 15.5101 12.7266 15.6616L16.9999 18.7141V6.16663C16.9999 5.94561 16.9121 5.73365 16.7558 5.57737C16.5996 5.42109 16.3876 5.33329 16.1666 5.33329H7.83325Z" fill="#271900"/>
</svg>
