<svg width="24" height="24" viewBox="0 0 24 24" fill="none" xmlns="http://www.w3.org/2000/svg">
<path fill-rule="evenodd" clip-rule="evenodd" d="M5 5C5 4.20435 5.31607 3.44129 5.87868 2.87868C6.44129 2.31607 7.20435 2 8 2H16C16.7956 2 17.5587 2.31607 18.1213 2.87868C18.6839 3.44129 19 4.20435 19 5V11C19 11.2652 18.8946 11.5196 18.7071 11.7071C18.5196 11.8946 18.2652 12 18 12C17.7348 12 17.4804 11.8946 17.2929 11.7071C17.1054 11.5196 17 11.2652 17 11V5C17 4.73478 16.8946 4.48043 16.7071 4.29289C16.5196 4.10536 16.2652 4 16 4H8C7.73478 4 7.48043 4.10536 7.29289 4.29289C7.10536 4.48043 7 4.73478 7 5V19.131L11.168 16.353C11.4144 16.1888 11.7039 16.1011 12 16.1011C12.2961 16.1011 12.5856 16.1888 12.832 16.353L13.555 16.835C13.6643 16.9079 13.7581 17.0016 13.8311 17.1107C13.9042 17.2199 13.955 17.3423 13.9808 17.4711C14.0065 17.5999 14.0066 17.7325 13.9811 17.8614C13.9555 17.9902 13.9049 18.1127 13.832 18.222C13.7591 18.3313 13.6654 18.4251 13.5563 18.4981C13.4471 18.5712 13.3247 18.622 13.1959 18.6478C13.0671 18.6735 12.9345 18.6736 12.8056 18.6481C12.6768 18.6225 12.5543 18.5719 12.445 18.499L12 18.202L7.332 21.314C6.335 21.978 5 21.264 5 20.066V5ZM18.677 15.034C18.9076 14.7952 19.1835 14.6048 19.4885 14.4737C19.7935 14.3427 20.1215 14.2738 20.4535 14.2709C20.7854 14.268 21.1146 14.3312 21.4219 14.4569C21.7291 14.5826 22.0083 14.7683 22.243 15.003C22.4777 15.2377 22.6634 15.5169 22.7891 15.8241C22.9148 16.1314 22.978 16.4606 22.9751 16.7925C22.9722 17.1245 22.9033 17.4525 22.7723 17.7575C22.6412 18.0625 22.4508 18.3384 22.212 18.569L18.795 21.987C18.5653 22.2165 18.2674 22.3653 17.946 22.411L15.637 22.741C15.4831 22.7631 15.3262 22.7491 15.1787 22.6999C15.0312 22.6508 14.8972 22.568 14.7873 22.458C14.6774 22.348 14.5947 22.2139 14.5457 22.0664C14.4967 21.9188 14.4827 21.7619 14.505 21.608L14.835 19.3C14.8807 18.9786 15.0295 18.6807 15.259 18.451L18.677 15.034ZM20.798 16.448C20.7042 16.3543 20.5771 16.3016 20.4445 16.3016C20.3119 16.3016 20.1848 16.3543 20.091 16.448L16.791 19.748L16.673 20.573L17.498 20.455L20.798 17.155C20.8917 17.0612 20.9444 16.9341 20.9444 16.8015C20.9444 16.6689 20.8917 16.5418 20.798 16.448Z" fill="#1E1E1E"/>
</svg>
