<svg width="24" height="24" viewBox="0 0 24 24" fill="none" xmlns="http://www.w3.org/2000/svg">
<path fill-rule="evenodd" clip-rule="evenodd" d="M18.293 17.293C18.4726 17.1118 18.7146 17.006 18.9696 16.9974C19.2245 16.9887 19.4732 17.0778 19.6646 17.2465C19.856 17.4152 19.9757 17.6506 19.9992 17.9047C20.0227 18.1587 19.9482 18.4121 19.791 18.6131L19.707 18.7071L18.207 20.2071C17.9173 20.497 17.5732 20.727 17.1945 20.884C16.8158 21.0409 16.4099 21.1217 16 21.1217C15.5901 21.1217 15.1842 21.0409 14.8055 20.884C14.4268 20.727 14.0828 20.497 13.793 20.2071C13.5989 20.0125 13.34 19.8961 13.0656 19.8801C12.7912 19.864 12.5205 19.9494 12.305 20.1201L12.207 20.2071L11.707 20.7071C11.5271 20.8864 11.2856 20.9905 11.0316 20.9983C10.7777 21.006 10.5303 20.9168 10.3397 20.7488C10.1492 20.5808 10.0297 20.3465 10.0056 20.0936C9.98152 19.8407 10.0546 19.588 10.21 19.387L10.293 19.293L10.793 18.793C11.0828 18.5031 11.4268 18.2731 11.8055 18.1161C12.1842 17.9592 12.5901 17.8784 13 17.8784C13.4099 17.8784 13.8158 17.9592 14.1945 18.1161C14.5732 18.2731 14.9173 18.5031 15.207 18.793C15.4012 18.9876 15.6601 19.104 15.9344 19.12C16.2088 19.1361 16.4795 19.0507 16.695 18.88L16.793 18.793L18.293 17.293ZM16.483 3.98305C16.941 3.52535 17.5587 3.26318 18.206 3.25173C18.8534 3.24028 19.48 3.48044 19.9539 3.92166C20.4277 4.36288 20.7119 4.97073 20.7467 5.61728C20.7814 6.26382 20.5639 6.89862 20.14 7.38805L20.018 7.51905L8.44301 19.094C8.29875 19.2383 8.12657 19.3516 7.93701 19.427L7.79201 19.477L4.95501 20.284C4.79239 20.3306 4.6206 20.3352 4.45573 20.2973C4.29087 20.2594 4.13831 20.1803 4.01232 20.0674C3.88634 19.9545 3.79106 19.8115 3.73539 19.6518C3.67972 19.492 3.66548 19.3208 3.69401 19.154L3.71801 19.0471L4.52501 16.209C4.58086 16.0129 4.67614 15.8302 4.80501 15.672L4.90701 15.559L16.483 3.98305ZM18.603 5.39805C18.5203 5.31547 18.4114 5.26446 18.295 5.25387C18.1786 5.24327 18.0622 5.27376 17.966 5.34005L17.896 5.39805L6.41401 16.88L6.13401 17.868L7.12101 17.588L18.604 6.10405C18.6977 6.01029 18.7504 5.88313 18.7504 5.75055C18.7504 5.61797 18.6977 5.49081 18.604 5.39705" fill="#1E1E1E"/>
</svg>
