<svg width="24" height="24" viewBox="0 0 24 24" fill="none" xmlns="http://www.w3.org/2000/svg">
<path fill-rule="evenodd" clip-rule="evenodd" d="M19 19.0001C19.2549 19.0003 19.5001 19.0979 19.6854 19.2729C19.8707 19.4479 19.9823 19.687 19.9972 19.9415C20.0121 20.1959 19.9294 20.4464 19.7658 20.6419C19.6022 20.8373 19.3701 20.963 19.117 20.9931L19 21.0001H12C11.7452 20.9998 11.5 20.9022 11.3147 20.7272C11.1293 20.5522 11.0178 20.3131 11.0029 20.0587C10.9879 19.8042 11.0707 19.5537 11.2343 19.3582C11.3979 19.1628 11.6299 19.0372 11.883 19.0071L12 19.0001H19ZM16.096 4.36806C16.554 3.91036 17.1717 3.64819 17.8191 3.63674C18.4664 3.62529 19.093 3.86545 19.5669 4.30667C20.0408 4.74789 20.325 5.35574 20.3597 6.00229C20.3944 6.64883 20.1769 7.28363 19.753 7.77306L19.631 7.90306L8.73504 18.8001C8.63982 18.8954 8.53218 18.9775 8.41504 19.0441L8.29504 19.1041L4.49104 20.8341C3.68304 21.2011 2.85304 20.4171 3.12604 19.6091L3.16604 19.5091L4.89604 15.7041C4.95149 15.5817 5.02313 15.4673 5.10904 15.3641L5.19904 15.2641L16.096 4.36806ZM18.217 5.78206C18.1342 5.69938 18.0249 5.6484 17.9084 5.63798C17.7918 5.62757 17.6752 5.65838 17.579 5.72506L17.51 5.78206L6.67804 16.6141L6.08904 17.9111L7.38504 17.3211L18.217 6.49006C18.2636 6.44361 18.3005 6.38844 18.3258 6.32769C18.351 6.26695 18.3639 6.20183 18.3639 6.13606C18.3639 6.07029 18.351 6.00517 18.3258 5.94443C18.3005 5.88368 18.2636 5.82851 18.217 5.78206Z" fill="#1E1E1E"/>
</svg>
