<svg width="24" height="24" viewBox="0 0 24 24" fill="none" xmlns="http://www.w3.org/2000/svg">
<path d="M16.035 3.01505C16.5735 2.47645 17.2967 2.16281 18.0579 2.13774C18.8191 2.11267 19.5613 2.37804 20.1341 2.88005L20.278 3.01505L20.9851 3.72205C21.5234 4.26047 21.8368 4.98343 21.8619 5.74439C21.887 6.50534 21.6218 7.24737 21.1201 7.82005L20.9851 7.96405L9.77305 19.177C9.61452 19.3356 9.42248 19.4565 9.21105 19.531L9.04905 19.578L4.59505 20.6061C4.43899 20.6423 4.27649 20.6406 4.12124 20.601C3.96599 20.5614 3.82253 20.485 3.70295 20.3784C3.58337 20.2717 3.49117 20.1379 3.4341 19.9882C3.37704 19.8385 3.35678 19.6772 3.37505 19.518L3.39505 19.4051L4.42205 14.95C4.47278 14.7315 4.57188 14.5272 4.71205 14.352L4.82305 14.227L16.035 3.01505ZM15.328 6.55005L6.33805 15.54L5.70205 18.298L8.46005 17.661L17.45 8.67105L15.328 6.55005ZM18.864 4.42905C18.6919 4.25687 18.4628 4.15344 18.2197 4.13816C17.9767 4.12288 17.7365 4.1968 17.544 4.34605L17.45 4.42905L16.742 5.13605L18.864 7.25705L19.571 6.55005C19.7432 6.37786 19.8467 6.14876 19.8619 5.90573C19.8772 5.6627 19.8033 5.42245 19.654 5.23005L19.571 5.13605L18.864 4.42905Z" fill="#1E1E1E"/>
</svg>
