<svg width="24" height="24" viewBox="0 0 24 24" fill="none" xmlns="http://www.w3.org/2000/svg">
<g clip-path="url(#clip0_386_72682)">
<path fill-rule="evenodd" clip-rule="evenodd" d="M19.8391 4.28197C20.6291 5.07297 21.0191 5.99297 20.9991 7.00197C20.9821 7.96297 20.5941 8.89597 20.0611 9.76597C19.3511 10.928 18.2661 12.154 17.0531 13.411L16.3811 14.1L15.6911 14.794L14.4211 16.062L13.6811 16.792C12.3291 18.109 11.0111 19.299 9.7661 20.061C8.8961 20.594 7.9631 20.981 7.0021 21C5.9931 21.02 5.0731 20.63 4.2821 19.839C3.0951 18.652 2.5861 16.495 2.8851 14.194C3.1781 11.938 4.2561 9.39097 6.4501 7.07397L6.7731 6.74197C9.1701 4.35197 11.8401 3.19097 14.1931 2.88497C16.4941 2.58597 18.6521 3.09497 19.8391 4.28197ZM18.4251 5.69697C17.8441 5.11597 16.4171 4.61297 14.4511 4.86797C14.0211 4.92397 13.5721 5.01597 13.1111 5.14897C13.3711 5.44897 13.7111 5.66397 14.1451 5.80897C14.2713 5.84923 14.3882 5.91414 14.4891 5.99994C14.5899 6.08575 14.6728 6.19074 14.7327 6.30882C14.7927 6.4269 14.8286 6.55571 14.8384 6.68779C14.8482 6.81986 14.8317 6.95257 14.7897 7.07819C14.7478 7.20382 14.6814 7.31987 14.5942 7.4196C14.5071 7.51934 14.401 7.60077 14.2822 7.65918C14.1633 7.71758 14.034 7.75179 13.9018 7.75983C13.7696 7.76786 13.6372 7.74955 13.5121 7.70597C12.5021 7.36997 11.7241 6.76397 11.2041 5.91697C10.2949 6.39587 9.4501 6.98827 8.69009 7.67997C8.84909 7.91697 9.0621 8.17997 9.3201 8.43797C9.74409 8.86097 10.1781 9.16397 10.4961 9.30097L10.6091 9.34497C10.8608 9.42878 11.0689 9.60914 11.1876 9.84637C11.3063 10.0836 11.3259 10.3583 11.2421 10.61C11.1583 10.8617 10.9779 11.0698 10.7407 11.1885C10.5035 11.3072 10.2288 11.3268 9.9771 11.243C9.2391 10.997 8.4911 10.436 7.9071 9.85197C7.68518 9.63061 7.47743 9.39547 7.2851 9.14797C6.64877 9.91569 6.11311 10.7615 5.6911 11.665C5.9621 12.269 6.4071 12.659 7.0741 12.881C7.32237 12.9675 7.52659 13.1483 7.64254 13.3843C7.75849 13.6203 7.77683 13.8924 7.69361 14.1418C7.61039 14.3912 7.43229 14.5978 7.19788 14.7169C6.96346 14.8359 6.69158 14.8579 6.4411 14.778C5.89452 14.6014 5.3877 14.3198 4.9491 13.949C4.9171 14.119 4.8891 14.287 4.8691 14.452C4.6131 16.419 5.1161 17.845 5.6971 18.426C6.1431 18.872 6.5531 19.009 6.9641 19.001C7.4221 18.992 7.9971 18.8 8.7221 18.356C9.6741 17.774 10.7101 16.871 11.8551 15.776L12.4901 15.159L13.4851 14.172L14.8371 12.817L15.4711 12.171C16.7041 10.901 17.7201 9.76097 18.3551 8.72297C18.7991 7.99797 18.9911 7.42297 19.0001 6.96497C19.0081 6.55497 18.8711 6.14397 18.4251 5.69697Z" fill="#271900"/>
</g>
<defs>
<clipPath id="clip0_386_72682">
<rect width="24" height="24" fill="white"/>
</clipPath>
</defs>
</svg>
