<svg width="24" height="24" viewBox="0 0 24 24" fill="none" xmlns="http://www.w3.org/2000/svg">
<g clip-path="url(#clip0_386_72678)">
<path fill-rule="evenodd" clip-rule="evenodd" d="M12 3C13.2513 3.00002 14.4712 3.39108 15.4892 4.11849C16.5073 4.84591 17.2726 5.8733 17.678 7.057C18.3813 7.17805 19.0394 7.48498 19.5841 7.94598C20.1287 8.40697 20.5402 9.00525 20.7759 9.67881C21.0115 10.3524 21.0627 11.0767 20.9242 11.7767C20.7857 12.4767 20.4625 13.127 19.988 13.66C19.978 13.718 19.963 13.777 19.943 13.834L19.908 13.919L17.444 19.257C17.2178 19.7475 16.8633 20.1678 16.418 20.4735C15.9726 20.7792 15.4531 20.9591 14.914 20.994L14.72 21H9.28003C8.73986 21 8.20972 20.8541 7.74558 20.5777C7.28144 20.3014 6.90052 19.9049 6.64303 19.43L6.55603 19.257L4.09203 13.919C4.05376 13.8367 4.02685 13.7496 4.01203 13.66C3.53762 13.127 3.2144 12.4767 3.07587 11.7767C2.93734 11.0767 2.98855 10.3524 3.22419 9.67881C3.45983 9.00525 3.87132 8.40697 4.41602 7.94598C4.96071 7.48498 5.61879 7.17805 6.32203 7.057C6.7275 5.8733 7.49277 4.84591 8.51082 4.11849C9.52888 3.39108 10.7488 3.00002 12 3ZM17 15H7.00003C6.92303 15 6.95503 15.182 7.05003 15.462L7.14703 15.725L7.33603 16.185L7.55803 16.688L7.86803 17.36L8.37203 18.42C8.45222 18.5933 8.58034 18.74 8.74124 18.8427C8.90214 18.9455 9.08911 19.0001 9.28003 19H14.72C14.911 19.0001 15.0979 18.9455 15.2588 18.8427C15.4197 18.74 15.5478 18.5933 15.628 18.42L16.286 17.029L16.518 16.519L16.664 16.185L16.795 15.871L16.905 15.589C17.033 15.237 17.088 15 17 15ZM12 5C11.078 5.00019 10.1843 5.31874 9.47008 5.90181C8.75582 6.48487 8.26481 7.29668 8.08003 8.2C8.03312 8.43171 7.90562 8.63931 7.72017 8.78595C7.53473 8.93258 7.30332 9.00878 7.06703 9.001L7.00003 9C6.48105 8.99768 5.98149 9.19719 5.60688 9.55638C5.23228 9.91557 5.01197 10.4063 4.99249 10.9249C4.97302 11.4436 5.15591 11.9494 5.50253 12.3357C5.84914 12.722 6.33234 12.9584 6.85003 12.995L7.00003 13H17C17.519 13.0023 18.0186 12.8028 18.3932 12.4436C18.7678 12.0844 18.9881 11.5937 19.0076 11.0751C19.027 10.5564 18.8442 10.0506 18.4975 9.66428C18.1509 9.27801 17.6677 9.0416 17.15 9.005L17 9L16.933 9.001C16.6969 9.00882 16.4656 8.93277 16.2802 8.78633C16.0947 8.63989 15.9672 8.43253 15.92 8.201C15.7355 7.2975 15.2445 6.48546 14.5303 5.90219C13.816 5.31893 12.9222 5.00024 12 5Z" fill="#271900"/>
</g>
<defs>
<clipPath id="clip0_386_72678">
<rect width="24" height="24" fill="white"/>
</clipPath>
</defs>
</svg>
